<?xml version="1.0" encoding="utf-8"?>
<!-- Generator: Adobe Illustrator 24.3.0, SVG Export Plug-In . SVG Version: 6.00 Build 0)  -->
<svg version="1.1" id="Layer_1" xmlns="http://www.w3.org/2000/svg" xmlns:xlink="http://www.w3.org/1999/xlink" x="0px" y="0px"
	 viewBox="0 0 1080 1080" style="enable-background:new 0 0 1080 1080;" xml:space="preserve">
<style type="text/css">
	.st0{fill:#E6F3FC;}
	.st1{opacity:0.4;}
	.st2{fill:#C4C4C4;}
	.st3{fill:#F9CA24;}
	.st4{fill:#35161F;}
	.st5{fill:url(#SVGID_1_);}
	.st6{fill:url(#SVGID_2_);}
	.st7{fill:url(#SVGID_3_);}
	.st8{opacity:0.36;fill:#C4BE83;}
	.st9{fill:url(#SVGID_4_);}
	.st10{opacity:0.63;fill:#C4BE83;}
	.st11{fill:url(#SVGID_5_);}
	.st12{fill:url(#SVGID_6_);}
	.st13{opacity:0.41;}
	.st14{fill:#C4BE83;}
	.st15{fill:url(#SVGID_7_);}
	.st16{fill:url(#SVGID_8_);}
	.st17{opacity:0.36;fill:#C18484;}
	.st18{fill:url(#SVGID_9_);}
	.st19{fill:url(#SVGID_10_);}
	.st20{fill:url(#SVGID_11_);}
	.st21{fill:url(#SVGID_12_);}
	.st22{fill:url(#SVGID_13_);}
	.st23{fill:url(#SVGID_14_);}
	.st24{fill:url(#SVGID_15_);}
	.st25{fill:url(#SVGID_16_);}
	.st26{fill:url(#SVGID_17_);}
	.st27{fill:url(#SVGID_18_);}
	.st28{opacity:0.88;fill:#C65602;}
	.st29{fill:url(#SVGID_19_);}
	.st30{fill:url(#SVGID_20_);}
	.st31{fill:url(#SVGID_21_);}
	.st32{fill:url(#SVGID_22_);}
	.st33{fill:url(#SVGID_23_);}
	.st34{fill:url(#SVGID_24_);}
	.st35{fill:url(#SVGID_25_);}
	.st36{fill:url(#SVGID_26_);}
	.st37{fill:url(#SVGID_27_);}
	.st38{fill:url(#SVGID_28_);}
	.st39{fill:url(#SVGID_29_);}
	.st40{fill:url(#SVGID_30_);}
	.st41{fill:url(#SVGID_31_);}
	.st42{opacity:0.82;fill:#C4BE83;}
	.st43{fill:#310035;}
	.st44{fill:#DD8B7C;}
	.st45{opacity:0.54;fill:url(#SVGID_32_);}
	.st46{opacity:0.54;fill:url(#SVGID_33_);}
	.st47{fill:#210701;}
	.st48{fill:url(#SVGID_34_);}
	.st49{fill:url(#SVGID_35_);}
	.st50{opacity:0.21;fill:url(#SVGID_36_);}
	.st51{fill:url(#SVGID_37_);}
	.st52{opacity:0.68;fill:#CC504A;}
	.st53{fill:url(#SVGID_38_);}
	.st54{fill:#0D080A;}
	.st55{fill:url(#SVGID_39_);}
	.st56{fill:#9F3100;}
	.st57{opacity:0.54;fill:url(#SVGID_40_);}
	.st58{fill:#1E1417;}
	.st59{clip-path:url(#SVGID_42_);fill:url(#SVGID_43_);}
	.st60{clip-path:url(#SVGID_42_);}
	.st61{fill:url(#SVGID_44_);}
	.st62{fill:url(#SVGID_45_);}
	.st63{fill:url(#SVGID_46_);}
	.st64{opacity:0.36;clip-path:url(#SVGID_42_);fill:#C4BE83;}
	.st65{clip-path:url(#SVGID_42_);fill:#FFFFFF;}
	.st66{opacity:0.72;fill:url(#SVGID_47_);}
	.st67{opacity:0.58;fill:url(#SVGID_48_);}
	.st68{opacity:0.43;fill:url(#SVGID_49_);}
	.st69{opacity:0.43;fill:url(#SVGID_50_);}
	.st70{fill:#FFCE95;}
	.st71{opacity:0.54;fill:url(#SVGID_51_);}
	.st72{clip-path:url(#SVGID_53_);fill:url(#SVGID_54_);}
	.st73{clip-path:url(#SVGID_53_);}
	.st74{fill:url(#SVGID_55_);}
	.st75{fill:url(#SVGID_56_);}
	.st76{fill:url(#SVGID_57_);}
	.st77{opacity:0.36;clip-path:url(#SVGID_53_);fill:#C4BE83;}
	.st78{clip-path:url(#SVGID_53_);fill:#FFFFFF;}
	.st79{fill:#E26660;}
	.st80{opacity:0.81;fill:#E7BF91;}
	.st81{opacity:0.54;fill:#D8659F;}
	.st82{opacity:0.54;fill:#E7BF91;}
	.st83{fill:url(#SVGID_58_);}
	.st84{opacity:0.26;fill:#110B0D;}
	.st85{fill:#110B0D;}
	.st86{fill:url(#SVGID_59_);}
	.st87{fill:url(#SVGID_60_);}
	.st88{fill:url(#SVGID_61_);}
	.st89{fill:url(#SVGID_62_);}
	.st90{fill:url(#SVGID_63_);}
	.st91{opacity:0.54;fill:url(#SVGID_64_);}
	.st92{fill:url(#SVGID_65_);}
	.st93{fill:url(#SVGID_66_);}
	.st94{fill:url(#SVGID_67_);}
	.st95{fill:url(#SVGID_68_);}
	.st96{fill:url(#SVGID_69_);}
	.st97{fill:url(#SVGID_70_);}
	.st98{fill:url(#SVGID_71_);}
	.st99{fill:url(#SVGID_72_);}
	.st100{fill:#D82A2A;}
	.st101{opacity:0.9;fill:#C4BE83;}
</style>
<g>
	<path class="st0" d="M372.93,334.73c-131.91,66.71-208.35,224.4-153.3,360.02c55.04,135.61,209.25,167.28,328.8,112.17
		s306.34-357.51,246.46-441.6C735,281.23,482.67,279.23,372.93,334.73z"/>
	<g>
		<g>
			<g>
				<g class="st1">
					<path class="st2" d="M595.24,291.38H373.69c0-10.92,8.85-19.78,19.78-19.78c4.23,0,8.15,1.33,11.36,3.6
						c1.09-22.63,19.79-40.65,42.69-40.65c19.49,0,35.92,13.02,41.08,30.84c5.37-5.07,12.58-8.17,20.55-8.17
						c12.7,0,23.56,11.48,27.91,22.65c6.11-2.98,13.35-4.68,21.11-4.68C575.24,275.19,589.76,279.85,595.24,291.38z"/>
					<g>
						<g>
							<path class="st2" d="M759.09,401.18c-0.17-0.39-4.31-9.49-16.22-8.3c-1.17-3.07-7.73-16.8-28.16-5.29
								c-1.62-4.09-10.86-24.15-31.34-10.07c-0.29-2.05-1.19-6.23-3.92-9.77c-3.77-4.88-9.54-6.68-17.14-5.33
								c-6.87,1.22-11.47,4.81-13.67,10.68c-2.18,5.81-1.34,12.09-0.83,14.71c-4.2,0.17-22.69,1.6-24.62,13.65l-0.18,1.14h136.71
								L759.09,401.18z"/>
						</g>
					</g>
					<g>
						<g>
							<path class="st2" d="M387.85,486.14c-0.15-0.39-3.86-9.49-14.53-8.3c-1.05-3.07-6.93-16.8-25.23-5.29
								c-1.45-4.09-9.73-24.15-28.08-10.07c-0.26-2.05-1.06-6.23-3.51-9.77c-3.38-4.88-8.55-6.68-15.35-5.33
								c-6.16,1.22-10.28,4.81-12.25,10.68c-1.95,5.81-1.2,12.09-0.74,14.71c-3.76,0.17-20.33,1.6-22.06,13.65l-0.16,1.14h122.49
								L387.85,486.14z"/>
						</g>
					</g>
				</g>
				<g>
					<path class="st3" d="M333.1,383.36c0,0,0.3-24.02,24.02-24.02c0,0-24.02-0.3-24.02-24.02c0,0-0.3,24.02-24.02,24.02
						C309.08,359.34,333.1,359.63,333.1,383.36z"/>
					<path class="st3" d="M716.69,651.63c0,0,0.17-14.11,14.11-14.11c0,0-14.11-0.17-14.11-14.11c0,0-0.17,14.11-14.11,14.11
						C702.58,637.53,716.69,637.7,716.69,651.63z"/>
					<path class="st3" d="M646.29,311.38c0,0,0.17-14.11,14.11-14.11c0,0-14.11-0.17-14.11-14.11c0,0-0.17,14.11-14.11,14.11
						C632.18,297.27,646.29,297.45,646.29,311.38z"/>
					<path class="st3" d="M380.88,435.22c0,0,0.17-14.11,14.11-14.11c0,0-14.11-0.17-14.11-14.11c0,0-0.17,14.11-14.11,14.11
						C366.77,421.11,380.88,421.29,380.88,435.22z"/>
				</g>
			</g>
		</g>
	</g>
	<g>
		<g>
			<polygon class="st4" points="410.04,605.55 414.43,616.03 412.05,615.94 407.41,605.45 367.72,603.58 370.02,606.95 
				366.76,606.83 364.22,602.4 			"/>
			
				<linearGradient id="SVGID_1_" gradientUnits="userSpaceOnUse" x1="443.6031" y1="537.8143" x2="451.4712" y2="576.7844" gradientTransform="matrix(-0.9994 -0.0354 -0.0354 0.9994 1091.5515 19.1863)">
				<stop  offset="0" style="stop-color:#FFE1FF"/>
				<stop  offset="0.155" style="stop-color:#FFE2F3"/>
				<stop  offset="0.4386" style="stop-color:#FFE3D1"/>
				<stop  offset="0.8162" style="stop-color:#FFE69C"/>
				<stop  offset="1" style="stop-color:#FFE780"/>
			</linearGradient>
			<path class="st5" d="M625.8,540.16c0,0,11.06,16.42,5.43,42.17l-18.8-12.98C612.43,569.35,609.63,550.88,625.8,540.16z"/>
			<path class="st4" d="M709.43,656.1c0,0-67.48,5.61-77.1,79.16l-2.83-3.3l0.4-71.15l49.73-17.84
				C679.62,642.97,704.24,651.12,709.43,656.1z"/>
			
				<linearGradient id="SVGID_2_" gradientUnits="userSpaceOnUse" x1="384.3424" y1="617.1843" x2="680.3092" y2="617.1843" gradientTransform="matrix(-0.9994 -0.0354 -0.0354 0.9994 1091.5515 19.1863)">
				<stop  offset="0" style="stop-color:#574A4D"/>
				<stop  offset="0.3339" style="stop-color:#4E3C41"/>
				<stop  offset="0.9584" style="stop-color:#371921"/>
				<stop  offset="1" style="stop-color:#35161F"/>
			</linearGradient>
			<path class="st6" d="M625.66,721.57c0,0,4.16-59.45-17.49-101.02c-17.7-33.99-36.7-100.24-36.7-100.24l8.92-23.3l3.47,32.63
				l56.15,129.52l17.08-4.91l25.25,60.99l-9.1,3.84l-25.08-57.62l-16.64,13.48l-0.33,9.28l1.14,51.06l-76.48-2.71l-16.75,6.02
				l-49.99-1.48l1.05-11.25c0,0-28.01-45.81-92.24-3.26l-10.24-49.59l98.76-33.37l32.25,81.96l8.43-2.7L625.66,721.57z"/>
			
				<linearGradient id="SVGID_3_" gradientUnits="userSpaceOnUse" x1="566.492" y1="622.014" x2="673.458" y2="728.98" gradientTransform="matrix(-0.9994 -0.0354 -0.0354 0.9994 1091.5515 19.1863)">
				<stop  offset="0" style="stop-color:#FF6C81"/>
				<stop  offset="0.1535" style="stop-color:#FF574D"/>
				<stop  offset="0.2961" style="stop-color:#FF4521"/>
				<stop  offset="1" style="stop-color:#FF4521"/>
			</linearGradient>
			<path class="st7" d="M528.99,726.31c0,0-10.49-35.01-6.14-77.37c4.36-42.36-161.65-25.01-161.65-25.01l10.06,68.94l14.69,8.81
				l5.34,20.66l6.63,0.23l5.38-36.79l45.29-22.69l42.42,38.55l-0.86,24.2L528.99,726.31z"/>
			<path class="st8" d="M376.39,682.62l5.69-39.74c0,0,71.91,15.93,136.69-5.61c-0.12,0.16-22.45,28.38-19.93,87.97
				c0.01,0.24,0.01,0.47,0.02,0.71l-8.7-0.1l0.86-24.2L448.6,663.1l-45.29,22.69l-5.38,36.79l-6.63-0.23l-3.39-13.1l1.12-13.84
				L376.39,682.62z"/>
			<path class="st8" d="M519.05,629.58c0,0-35.42,24.08-106.83,14.2c-71.41-9.88-55.75-22.54-55.75-22.54L519.05,629.58z"/>
			<g>
				
					<linearGradient id="SVGID_4_" gradientUnits="userSpaceOnUse" x1="360.7872" y1="681.1284" x2="418.7115" y2="739.0527" gradientTransform="matrix(-0.9994 -0.0354 -0.0354 0.9994 1091.5515 19.1863)">
					<stop  offset="0" style="stop-color:#574A4D"/>
					<stop  offset="0.261" style="stop-color:#524246"/>
					<stop  offset="0.6547" style="stop-color:#442E34"/>
					<stop  offset="1" style="stop-color:#35161F"/>
				</linearGradient>
				<circle class="st9" cx="676.94" cy="715.05" r="40.96"/>
				<path class="st10" d="M651.63,709.68c7.48-2.02,15.47-0.43,23.75,4.62c0.05-0.01,0.09-0.02,0.14-0.03
					c-0.04-0.21-0.1-0.39-0.14-0.6c-1.86-9.36-6.17-16.12-12.79-20.09c-5.61-3.36-12.08-4.22-17.55-4.15
					c0.57-0.71,1.15-1.41,1.76-2.08c5.35,0.13,11.41,1.21,16.84,4.46c7.14,4.28,11.77,11.5,13.76,21.45
					c5.47-7.11,7.72-14.41,6.6-21.72c-1.09-7.11-5.17-13.1-9.08-17.38c0.91-0.04,1.83-0.06,2.76-0.04c3.7,4.37,7.29,10.19,8.35,17.1
					c1.14,7.43-0.9,14.8-6,21.96c7.57-2.17,13.15-6.18,16.61-11.94c3.77-6.29,4.41-13.69,4.09-19.53c0.74,0.53,1.45,1.11,2.15,1.68
					c0.11,5.81-0.79,12.75-4.47,18.89c-4.11,6.86-10.96,11.38-20.32,13.48c-0.02,0.03-0.04,0.06-0.07,0.09
					c7.66,4.93,15.2,6.51,22.41,4.7c7.33-1.84,13.11-6.84,17.03-11.3c0.13,0.91,0.25,1.83,0.32,2.76
					c-4.05,4.29-9.71,8.75-16.83,10.54c-7.16,1.8-14.56,0.55-22.03-3.69c2.35,6.96,6.18,12.06,11.5,15.12
					c7.39,4.26,16.02,3.71,21.2,2.81c-0.5,0.79-0.99,1.59-1.55,2.35c-5.53,0.74-13.53,0.74-20.67-3.36
					c-6.18-3.55-10.51-9.55-12.95-17.83c-5.01,7.03-6.98,14.01-5.82,20.8c1.3,7.59,6.26,13.46,10.15,17.04
					c-0.94,0.09-1.9,0.13-2.86,0.15c-3.82-3.83-8.07-9.54-9.32-16.83c-1.28-7.43,0.88-15.02,6.35-22.59
					c-8.85,2.15-15.17,6.34-18.74,12.54c-3.77,6.54-3.77,14.06-3.1,19.3c-0.79-0.57-1.54-1.18-2.29-1.81
					c-0.44-5.34,0-12.25,3.6-18.51c3.6-6.25,9.68-10.62,18.11-13.04c-7.14-3.92-13.97-5.06-20.35-3.34
					c-7.02,1.89-12.21,6.89-15.47,10.99c-0.17-0.92-0.3-1.85-0.41-2.79C639.77,715.87,644.88,711.51,651.63,709.68z"/>
				
					<linearGradient id="SVGID_5_" gradientUnits="userSpaceOnUse" x1="363.5444" y1="710.0905" x2="416.3567" y2="710.0905" gradientTransform="matrix(-0.9994 -0.0354 -0.0354 0.9994 1091.5515 19.1863)">
					<stop  offset="0" style="stop-color:#574A4D"/>
					<stop  offset="0.261" style="stop-color:#524246"/>
					<stop  offset="0.6547" style="stop-color:#442E34"/>
					<stop  offset="1" style="stop-color:#35161F"/>
				</linearGradient>
				<circle class="st11" cx="676.74" cy="715.04" r="26.41"/>
				
					<linearGradient id="SVGID_6_" gradientUnits="userSpaceOnUse" x1="362.8682" y1="679.0625" x2="420.7923" y2="736.9866" gradientTransform="matrix(-0.9994 -0.0354 -0.0354 0.9994 1091.5515 19.1863)">
					<stop  offset="0" style="stop-color:#574A4D"/>
					<stop  offset="0.261" style="stop-color:#524246"/>
					<stop  offset="0.6547" style="stop-color:#442E34"/>
					<stop  offset="1" style="stop-color:#35161F"/>
				</linearGradient>
				<path class="st12" d="M678.65,746.03c-20.97-0.74-37.36-18.34-36.62-39.31c0.32-9.11,3.83-17.34,9.41-23.69
					c7.37-5.88,16.78-9.27,26.95-8.91c21.03,0.74,37.77,17.22,39.37,37.72C715.79,731.62,698.8,746.74,678.65,746.03z"/>
				
					<ellipse transform="matrix(0.9808 -0.1952 0.1952 0.9808 -126.5547 145.8484)" class="st10" cx="676.74" cy="715.04" rx="26.41" ry="26.41"/>
				
					<ellipse transform="matrix(0.9921 -0.1252 0.1252 0.9921 -84.1843 90.3362)" class="st10" cx="676.74" cy="715.04" rx="21.78" ry="21.78"/>
				<g>
					<g class="st13">
						<polygon class="st14" points="682.54,724.41 685.22,723.75 687.14,725.74 686.37,728.4 683.68,729.06 681.77,727.07 						"/>
						<polygon class="st14" points="675.49,699.83 678.17,699.17 680.09,701.17 679.32,703.82 676.63,704.48 674.72,702.49 						
							"/>
					</g>
					<g class="st13">
						<polygon class="st14" points="688.44,714.37 687.78,711.69 689.78,709.77 692.44,710.54 693.1,713.23 691.1,715.15 						"/>
						<polygon class="st14" points="665.07,727.71 664.41,725.02 666.4,723.1 669.06,723.87 669.72,726.56 667.73,728.48 						"/>
						<polygon class="st14" points="662.19,713.45 661.53,710.76 663.52,708.84 666.18,709.61 666.84,712.3 664.84,714.22 						"/>
					</g>
				</g>
				<path class="st10" d="M671.13,714.85c-0.11,3.1,2.31,5.69,5.41,5.8c3.1,0.11,5.69-2.31,5.8-5.41c0.11-3.1-2.31-5.69-5.41-5.8
					C673.84,709.33,671.24,711.75,671.13,714.85z"/>
			</g>
			
				<linearGradient id="SVGID_7_" gradientUnits="userSpaceOnUse" x1="421.7367" y1="586.4573" x2="476.3649" y2="641.0855" gradientTransform="matrix(-0.9994 -0.0354 -0.0354 0.9994 1091.5515 19.1863)">
				<stop  offset="0" style="stop-color:#FF6C81"/>
				<stop  offset="0.1535" style="stop-color:#FF574D"/>
				<stop  offset="0.2961" style="stop-color:#FF4521"/>
				<stop  offset="1" style="stop-color:#FF4521"/>
			</linearGradient>
			<path class="st15" d="M709.43,656.1c0,0-50.43-13.25-78.24,28.11c0,0-6.27-42.37-17.25-65.27c-10.98-22.89-30.06-89.3-30.06-89.3
				s12.47-6.64,28.06,46.21c0,0,26.64,13.24,37.94,47.21C649.87,623.07,686.32,622.62,709.43,656.1z"/>
			<path class="st8" d="M709.43,656.1c0,0-50.43-13.25-78.24,28.11c0,0-6.27-42.37-17.25-65.27c-10.98-22.89-30.06-89.3-30.06-89.3
				s5.21-2.75,13.1,9.55c-14.94-7.71,0.1,33.7,6.81,36.38c2.46,0.98,4.51-2.05,6.13-6.28c0.67,2.09,1.34,4.25,2.03,6.56
				c0,0,4.77,2.38,11.12,7.68c-38.57-24.95-1.31,50.45,13.06,48.1c8.91-1.46,10.4-10.67,10.26-17.47c1.28,2.8,2.45,5.76,3.5,8.9
				c0,0,5.41-0.06,13.37,1.77c-69.69,10.74,42.71,32.13,37.61,24.57c-2.24-3.33-6.01-7.86-9.52-11.89
				C697.67,642.1,703.93,648.13,709.43,656.1z"/>
			
				<linearGradient id="SVGID_8_" gradientUnits="userSpaceOnUse" x1="600.3283" y1="585.1988" x2="682.7972" y2="667.6677" gradientTransform="matrix(-0.9994 -0.0354 -0.0354 0.9994 1091.5515 19.1863)">
				<stop  offset="0" style="stop-color:#FFE1C5"/>
				<stop  offset="0.2733" style="stop-color:#FEDEC3"/>
				<stop  offset="0.4995" style="stop-color:#FBD3BE"/>
				<stop  offset="0.7089" style="stop-color:#F7C2B4"/>
				<stop  offset="0.9071" style="stop-color:#F1AAA7"/>
				<stop  offset="1" style="stop-color:#ED9C9F"/>
			</linearGradient>
			<path class="st16" d="M516,631.19c0,0-25.76,14.18-84.92,2.98c-59.16-11.2-68.74-2.43-68.74-2.43s-22.53-9.98-17.54-21.4
				c5-11.43,67.4-2.2,85.99,9.73C430.79,620.06,483.67,638.96,516,631.19z"/>
			<path class="st17" d="M431.08,634.17c-59.16-11.2-68.74-2.43-68.74-2.43s-22.53-9.98-17.54-21.4c0.17-0.39,0.43-0.76,0.73-1.1
				c1.77,5.29,6.24,12.99,17.36,13.1c16.93,0.17,33.04-4.86,66.05,3.05c0,0-30.96-9.29-61.88-7.58c0,0,22.41-5.82,60.6,4.33
				c0,0-12.44-6.61-33.85-10.07c0,0,17.5,0.62,36.97,7.99c0,0,0.5,0.18,1.41,0.49c0.22,0.07,0.43,0.15,0.66,0.22
				c10.02,3.35,54.52,17.25,83.07,10.44C514.52,631.97,488.58,645.06,431.08,634.17z"/>
			<path class="st17" d="M631.23,582.34l-18.8-12.98c0,0-2.81-18.47,13.37-29.19c-5.08,10.73-3.88,26.18-0.33,28.6
				c3.41,2.32,7.03-2,7.31-2.35C632.89,571.2,632.5,576.51,631.23,582.34z"/>
			
				<linearGradient id="SVGID_9_" gradientUnits="userSpaceOnUse" x1="477.3912" y1="408.0455" x2="484.3001" y2="442.2646" gradientTransform="matrix(-0.813 -0.5823 -0.5823 0.813 1261.7068 497.3214)">
				<stop  offset="0" style="stop-color:#FFE1C5"/>
				<stop  offset="0.2733" style="stop-color:#FEDEC3"/>
				<stop  offset="0.4995" style="stop-color:#FBD3BE"/>
				<stop  offset="0.7089" style="stop-color:#F7C2B4"/>
				<stop  offset="0.9071" style="stop-color:#F1AAA7"/>
				<stop  offset="1" style="stop-color:#ED9C9F"/>
			</linearGradient>
			<path class="st18" d="M631.23,582.34c0,0-21.67,1.33-26.13-17.52c-4.45-18.85,20.7-24.65,20.7-24.65S612.4,558.62,631.23,582.34z
				"/>
			<path class="st17" d="M605.1,564.82c-1.98-8.36,1.88-14.16,6.78-18.01c-9.2,7.67-4.12,20.65,1.58,23.26
				c6.12,2.8,11.4,2.17,11.4,2.17c1.53,3.23,3.59,6.61,6.37,10.11C631.23,582.34,609.56,583.67,605.1,564.82z"/>
			
				<linearGradient id="SVGID_10_" gradientUnits="userSpaceOnUse" x1="483.8698" y1="517.5297" x2="490.7015" y2="524.3614" gradientTransform="matrix(-0.9994 -0.0354 -0.0354 0.9994 1091.5515 19.1863)">
				<stop  offset="0" style="stop-color:#574A4D"/>
				<stop  offset="0.0755" style="stop-color:#534447"/>
				<stop  offset="0.4248" style="stop-color:#422B31"/>
				<stop  offset="0.7431" style="stop-color:#381B24"/>
				<stop  offset="1" style="stop-color:#35161F"/>
			</linearGradient>
			<path class="st19" d="M581.32,522.4c-0.09,2.67,1.99,4.9,4.66,5c2.67,0.09,4.9-1.99,5-4.66c0.09-2.67-1.99-4.9-4.66-5
				C583.65,517.65,581.42,519.74,581.32,522.4z"/>
			
				<linearGradient id="SVGID_11_" gradientUnits="userSpaceOnUse" x1="359.3639" y1="626.2556" x2="489.3125" y2="626.2556" gradientTransform="matrix(-0.9994 -0.0354 -0.0354 0.9994 1091.5515 19.1863)">
				<stop  offset="0.2067" style="stop-color:#FFFFFF"/>
				<stop  offset="0.2798" style="stop-color:#D5D5D5"/>
				<stop  offset="0.3878" style="stop-color:#9D9D9D"/>
				<stop  offset="0.4965" style="stop-color:#6D6D6D"/>
				<stop  offset="0.6036" style="stop-color:#464646"/>
				<stop  offset="0.7085" style="stop-color:#272727"/>
				<stop  offset="0.8109" style="stop-color:#121212"/>
				<stop  offset="0.9095" style="stop-color:#040404"/>
				<stop  offset="1" style="stop-color:#000000"/>
			</linearGradient>
			<path class="st20" d="M691.33,637.51c-0.02-0.01-24.88-14.19-47.32-7.72c3.47-1.79,9.61-3.47,19.23-4.95
				C671.03,626.63,681.28,630.24,691.33,637.51z"/>
			
				<linearGradient id="SVGID_12_" gradientUnits="userSpaceOnUse" x1="469.5403" y1="553.7337" x2="483.794" y2="532.1277" gradientTransform="matrix(-0.9994 -0.0354 -0.0354 0.9994 1091.5515 19.1863)">
				<stop  offset="0" style="stop-color:#FFFFFF"/>
				<stop  offset="0.0921" style="stop-color:#D5D5D5"/>
				<stop  offset="0.2283" style="stop-color:#9D9D9D"/>
				<stop  offset="0.3653" style="stop-color:#6D6D6D"/>
				<stop  offset="0.5003" style="stop-color:#464646"/>
				<stop  offset="0.6326" style="stop-color:#272727"/>
				<stop  offset="0.7616" style="stop-color:#121212"/>
				<stop  offset="0.8859" style="stop-color:#040404"/>
				<stop  offset="1" style="stop-color:#000000"/>
			</linearGradient>
			<path class="st21" d="M605.47,556.69c-5.03-5.42-10.44-10.58-14.88-13.24c0.04-4.36,1.79-6.64,6.38-4.27
				c-2.5-3.89-4.73-6.27-6.61-7.71C594.2,534.4,599.45,541.25,605.47,556.69z"/>
			
				<linearGradient id="SVGID_13_" gradientUnits="userSpaceOnUse" x1="427.7866" y1="611.8728" x2="462.7311" y2="572.0523" gradientTransform="matrix(-0.9994 -0.0354 -0.0354 0.9994 1091.5515 19.1863)">
				<stop  offset="0" style="stop-color:#FFFFFF"/>
				<stop  offset="0.3132" style="stop-color:#B2B2B2"/>
				<stop  offset="1" style="stop-color:#000000"/>
			</linearGradient>
			<path class="st22" d="M646.37,614.17c0,0-18-26.42-40.02-31.98c1.11-4.77,5.97-5.6,16.71,1.34
				C630.33,589.61,639.69,599.53,646.37,614.17z"/>
			<path class="st10" d="M398.63,706.19l-4.22-1.14c16.69-29.75,94.96-9.88,94.96-9.88l10.06,13.6l-6.25-0.22l-0.84,23.71
				l44.87,1.59l19.12-5.66l75.91,2.69l0.1,4.39l-76.48-2.71l-16.75,6.02l-49.99-1.48l1.05-11.25c0,0-28.01-45.81-92.24-3.26
				l-6.63-0.23l-1.02-3.95l3.65,0.13L398.63,706.19z"/>
			<g>
				
					<linearGradient id="SVGID_14_" gradientUnits="userSpaceOnUse" x1="590.9539" y1="681.1284" x2="648.8781" y2="739.0526" gradientTransform="matrix(-0.9994 -0.0354 -0.0354 0.9994 1091.5515 19.1863)">
					<stop  offset="0" style="stop-color:#574A4D"/>
					<stop  offset="0.261" style="stop-color:#524246"/>
					<stop  offset="0.6547" style="stop-color:#442E34"/>
					<stop  offset="1" style="stop-color:#35161F"/>
				</linearGradient>
				<circle class="st23" cx="446.91" cy="706.91" r="40.96"/>
				<path class="st10" d="M421.61,701.55c7.48-2.02,15.47-0.43,23.75,4.62c0.05-0.01,0.09-0.02,0.14-0.03
					c-0.04-0.21-0.1-0.39-0.14-0.6c-1.86-9.36-6.17-16.12-12.79-20.09c-5.61-3.36-12.08-4.22-17.55-4.15
					c0.57-0.71,1.15-1.41,1.76-2.08c5.35,0.13,11.41,1.21,16.84,4.46c7.14,4.28,11.77,11.5,13.76,21.45
					c5.47-7.11,7.72-14.41,6.6-21.72c-1.09-7.11-5.17-13.1-9.08-17.38c0.91-0.04,1.83-0.06,2.76-0.04c3.7,4.37,7.29,10.19,8.35,17.1
					c1.14,7.43-0.9,14.8-6,21.96c7.57-2.17,13.15-6.18,16.61-11.94c3.77-6.29,4.41-13.69,4.09-19.53c0.74,0.53,1.45,1.11,2.15,1.68
					c0.11,5.81-0.79,12.75-4.47,18.89c-4.11,6.86-10.96,11.38-20.32,13.48c-0.02,0.03-0.04,0.06-0.07,0.09
					c7.66,4.93,15.2,6.51,22.41,4.7c7.33-1.84,13.11-6.84,17.03-11.3c0.13,0.91,0.25,1.83,0.32,2.76
					c-4.05,4.29-9.71,8.75-16.83,10.54c-7.16,1.8-14.56,0.55-22.03-3.69c2.35,6.96,6.18,12.06,11.5,15.12
					c7.39,4.26,16.02,3.71,21.2,2.81c-0.5,0.79-0.99,1.59-1.55,2.35c-5.53,0.74-13.53,0.74-20.67-3.36
					c-6.18-3.55-10.51-9.55-12.95-17.83c-5.01,7.03-6.98,14.01-5.82,20.8c1.3,7.59,6.26,13.46,10.15,17.04
					c-0.94,0.09-1.9,0.13-2.86,0.15c-3.82-3.83-8.07-9.54-9.32-16.83c-1.28-7.43,0.88-15.02,6.35-22.59
					c-8.85,2.15-15.17,6.34-18.74,12.54c-3.77,6.54-3.77,14.06-3.1,19.3c-0.79-0.57-1.54-1.18-2.29-1.81
					c-0.44-5.34,0-12.25,3.6-18.51c3.6-6.25,9.68-10.62,18.11-13.04c-7.14-3.92-13.97-5.06-20.35-3.34
					c-7.02,1.89-12.21,6.89-15.47,10.99c-0.17-0.92-0.3-1.85-0.41-2.79C409.75,707.73,414.85,703.37,421.61,701.55z"/>
				
					<linearGradient id="SVGID_15_" gradientUnits="userSpaceOnUse" x1="593.7109" y1="710.0905" x2="646.5232" y2="710.0905" gradientTransform="matrix(-0.9994 -0.0354 -0.0354 0.9994 1091.5515 19.1863)">
					<stop  offset="0" style="stop-color:#574A4D"/>
					<stop  offset="0.261" style="stop-color:#524246"/>
					<stop  offset="0.6547" style="stop-color:#442E34"/>
					<stop  offset="1" style="stop-color:#35161F"/>
				</linearGradient>
				<circle class="st24" cx="446.71" cy="706.9" r="26.41"/>
				
					<linearGradient id="SVGID_16_" gradientUnits="userSpaceOnUse" x1="593.0349" y1="679.0625" x2="650.9589" y2="736.9866" gradientTransform="matrix(-0.9994 -0.0354 -0.0354 0.9994 1091.5515 19.1863)">
					<stop  offset="0" style="stop-color:#574A4D"/>
					<stop  offset="0.261" style="stop-color:#524246"/>
					<stop  offset="0.6547" style="stop-color:#442E34"/>
					<stop  offset="1" style="stop-color:#35161F"/>
				</linearGradient>
				<path class="st25" d="M448.63,737.89c-20.97-0.74-37.36-18.34-36.62-39.31c0.32-9.11,3.83-17.34,9.4-23.69
					c7.37-5.88,16.78-9.27,26.95-8.91c21.03,0.74,37.77,17.22,39.37,37.72C485.77,723.48,468.78,738.61,448.63,737.89z"/>
				
					<ellipse transform="matrix(0.7368 -0.6761 0.6761 0.7368 -360.3827 488.1273)" class="st10" cx="446.71" cy="706.9" rx="26.41" ry="26.41"/>
				
					<ellipse transform="matrix(0.9922 -0.1246 0.1246 0.9922 -84.5766 61.1507)" class="st10" cx="446.71" cy="706.9" rx="21.78" ry="21.78"/>
				<g>
					<g class="st13">
						<polygon class="st14" points="452.52,716.27 455.2,715.61 457.12,717.6 456.35,720.26 453.66,720.92 451.74,718.93 						"/>
						<polygon class="st14" points="445.47,691.69 448.15,691.03 450.07,693.03 449.3,695.68 446.61,696.34 444.7,694.35 						"/>
					</g>
					<g class="st13">
						<polygon class="st14" points="458.42,706.24 457.76,703.55 459.76,701.63 462.41,702.4 463.07,705.09 461.08,707.01 						"/>
						<polygon class="st14" points="435.05,719.57 434.39,716.88 436.38,714.96 439.04,715.73 439.7,718.42 437.7,720.34 						"/>
						<polygon class="st14" points="432.16,705.31 431.5,702.62 433.5,700.7 436.16,701.48 436.82,704.16 434.82,706.08 						"/>
					</g>
				</g>
				<path class="st10" d="M441.11,706.71c-0.11,3.1,2.31,5.69,5.41,5.8c3.1,0.11,5.69-2.31,5.8-5.41c0.11-3.1-2.31-5.69-5.41-5.8
					C443.82,701.19,441.22,703.61,441.11,706.71z"/>
			</g>
			
				<linearGradient id="SVGID_17_" gradientUnits="userSpaceOnUse" x1="588.2028" y1="667.4951" x2="651.6291" y2="730.9214" gradientTransform="matrix(-0.9994 -0.0354 -0.0354 0.9994 1091.5515 19.1863)">
				<stop  offset="0" style="stop-color:#FF6C81"/>
				<stop  offset="0.1535" style="stop-color:#FF574D"/>
				<stop  offset="0.2961" style="stop-color:#FF4521"/>
				<stop  offset="1" style="stop-color:#FF4521"/>
			</linearGradient>
			<path class="st26" d="M448.77,654.4c29,1.03,51.68,25.37,50.65,54.37c0,0-63.24-33.74-105.02-3.72
				C395.43,676.05,419.77,653.37,448.77,654.4z"/>
			<path class="st8" d="M397.92,702.73c8.94-47.91,53.33-47.99,55.26-47.97c0.06,0.01,0.13,0.01,0.19,0.02
				c33.56,5.8,29.47,46.85,29.47,46.85C462.1,694.05,425.94,685.37,397.92,702.73z"/>
			
				<linearGradient id="SVGID_18_" gradientUnits="userSpaceOnUse" x1="567.3718" y1="684.1315" x2="611.798" y2="684.1315" gradientTransform="matrix(-0.9994 -0.0354 -0.0354 0.9994 1091.5515 19.1863)">
				<stop  offset="0" style="stop-color:#FFFFFF"/>
				<stop  offset="0.0746" style="stop-color:#D5D5D5"/>
				<stop  offset="0.1849" style="stop-color:#9D9D9D"/>
				<stop  offset="0.2959" style="stop-color:#6D6D6D"/>
				<stop  offset="0.4052" style="stop-color:#464646"/>
				<stop  offset="0.5124" style="stop-color:#272727"/>
				<stop  offset="0.617" style="stop-color:#121212"/>
				<stop  offset="0.7176" style="stop-color:#040404"/>
				<stop  offset="0.8101" style="stop-color:#000000"/>
			</linearGradient>
			<path class="st27" d="M456.86,655.31c25.01,4.79,43.49,27.21,42.56,53.46c0,0-3.62-1.92-9.66-4.44
				C489.76,704.32,499.28,670.93,456.86,655.31z"/>
			<polygon class="st28" points="366.95,662.88 368.74,662.95 376.97,647.55 376.84,641.24 			"/>
			
				<linearGradient id="SVGID_19_" gradientUnits="userSpaceOnUse" x1="699.5906" y1="668.9182" x2="699.5906" y2="642.2937" gradientTransform="matrix(-0.9994 -0.0354 -0.0354 0.9994 1091.5515 19.1863)">
				<stop  offset="0" style="stop-color:#FF7400"/>
				<stop  offset="0.0325" style="stop-color:#FF6D00"/>
				<stop  offset="0.2101" style="stop-color:#FD4C02"/>
				<stop  offset="0.3931" style="stop-color:#FB3304"/>
				<stop  offset="0.5817" style="stop-color:#FA2005"/>
				<stop  offset="0.7792" style="stop-color:#F91606"/>
				<stop  offset="1" style="stop-color:#F91206"/>
			</linearGradient>
			<polygon class="st29" points="366.95,662.88 375.25,646.2 377.67,638.68 363.04,636.11 361.53,638.98 365.62,662.84 			"/>
			<polygon class="st10" points="377.67,638.68 367.15,646.52 365.62,662.84 366.95,662.88 375.25,646.2 			"/>
			<g>
				
					<linearGradient id="SVGID_20_" gradientUnits="userSpaceOnUse" x1="666.7795" y1="611.3694" x2="697.7465" y2="642.3364" gradientTransform="matrix(-0.9994 -0.0354 -0.0354 0.9994 1091.5515 19.1863)">
					<stop  offset="0" style="stop-color:#574A4D"/>
					<stop  offset="0.0383" style="stop-color:#55474A"/>
					<stop  offset="0.4123" style="stop-color:#432C33"/>
					<stop  offset="0.7448" style="stop-color:#391C24"/>
					<stop  offset="1" style="stop-color:#35161F"/>
				</linearGradient>
				<path class="st30" d="M368.92,628.23l-9.9-23.9l3.53,0.12l9.27,23.03c1-0.06,2.16,0.05,3.49,0.42l1.57-4.26l29.36,1.72
					l2.01,4.32c0.85-0.13,1.91-0.23,3.12-0.21l-11.58-23.7l3.11,0.11l11.61,23.95c1.87,0.38,3.88,1.12,5.89,2.45l-0.06,1.62
					c-0.04,1.23-1.13,2.17-2.36,2.02l-10.14-1.19c-1.09-0.13-1.91-1.07-1.87-2.17l0.08-2.38l-1.66-2.76l-26.28-1.65l-0.87,2.82
					l0.1,1.3c0.09,1.16-0.77,2.17-1.92,2.27l-6.28,0.55c-1.16,0.1-2.18-0.75-2.29-1.9l-0.08-0.87
					C366.78,629.94,367.46,628.96,368.92,628.23z"/>
				<path class="st10" d="M368.9,628.18l-9.88-23.85l1.15,0.04l9.64,23.27C369.46,627.81,369.16,627.99,368.9,628.18z"/>
				<path class="st10" d="M405.29,626.82l1.66,2.76l-0.08,2.38c-0.04,1.1,0.77,2.05,1.87,2.17l10.14,1.19
					c0.33,0.04,0.65-0.01,0.94-0.11c-0.44,0.5-1.1,0.79-1.82,0.7l-10.14-1.19c-1.09-0.13-1.91-1.07-1.87-2.17l0.08-2.38l-1.66-2.76
					l-25.59-1.61l0.2-0.64L405.29,626.82z"/>
				<path class="st10" d="M375.58,627.16l1.3-3.52l0.65,0.04l-1.34,3.63C375.98,627.25,375.78,627.21,375.58,627.16z"/>
				<path class="st10" d="M368.6,628.41c-0.63,0.5-0.93,0.93-0.93,0.93l0.08,0.87c0.11,1.16,1.13,2.01,2.29,1.9l6.28-0.55
					c0.2-0.02,0.38-0.09,0.56-0.16c-0.35,0.42-0.85,0.71-1.44,0.76l-6.28,0.55c-1.16,0.1-2.18-0.75-2.29-1.9l-0.08-0.87
					C366.78,629.94,367.37,629.11,368.6,628.41z"/>
				<path class="st10" d="M411.09,628.9l-11.3-23.14l1.19,0.04l11.27,23.06C411.84,628.87,411.47,628.89,411.09,628.9z"/>
				<circle class="st10" cx="416.93" cy="632.81" r="0.86"/>
				<path class="st10" d="M409.85,631.81c-0.02,0.48,0.36,0.88,0.83,0.89c0.48,0.02,0.88-0.36,0.89-0.83
					c0.02-0.48-0.36-0.88-0.83-0.89C410.27,630.96,409.87,631.34,409.85,631.81z"/>
				<path class="st10" d="M373.85,629.67c-0.02,0.48,0.36,0.88,0.83,0.89c0.48,0.02,0.88-0.36,0.9-0.83
					c0.02-0.48-0.36-0.88-0.83-0.9C374.27,628.82,373.87,629.2,373.85,629.67z"/>
				<circle class="st10" cx="370.07" cy="630.07" r="0.86"/>
				
					<linearGradient id="SVGID_21_" gradientUnits="userSpaceOnUse" x1="671.2207" y1="587.4658" x2="712.1122" y2="628.3573" gradientTransform="matrix(-0.9994 -0.0354 -0.0354 0.9994 1091.5515 19.1863)">
					<stop  offset="0" style="stop-color:#574A4D"/>
					<stop  offset="0.0383" style="stop-color:#55474A"/>
					<stop  offset="0.4123" style="stop-color:#432C33"/>
					<stop  offset="0.7448" style="stop-color:#391C24"/>
					<stop  offset="1" style="stop-color:#35161F"/>
				</linearGradient>
				<polygon class="st31" points="419.26,603.25 417,606.38 340.62,603.68 337.87,600.72 				"/>
				<polygon class="st10" points="419.26,603.25 417,606.38 340.62,603.68 337.87,600.72 				"/>
			</g>
		</g>
		<g>
			<g>
				
					<linearGradient id="SVGID_22_" gradientUnits="userSpaceOnUse" x1="564.3153" y1="465.5732" x2="636.6521" y2="465.5732" gradientTransform="matrix(-0.9397 0.2451 0.3555 0.9715 858.0007 -60.5887)">
					<stop  offset="0" style="stop-color:#FFBB00"/>
					<stop  offset="0.1301" style="stop-color:#FFA000"/>
					<stop  offset="0.3575" style="stop-color:#FF7400"/>
					<stop  offset="0.5739" style="stop-color:#FD5602"/>
					<stop  offset="1" style="stop-color:#F91206"/>
				</linearGradient>
				<path class="st32" d="M479.67,492.99l7.48,69.58c0.18,3.34-1.41,6.22-4.11,7.45l-36.61,16.76l-9.85-8.04l-5.67-76.99
					L479.67,492.99z"/>
				
					<linearGradient id="SVGID_23_" gradientUnits="userSpaceOnUse" x1="562.7249" y1="526.2161" x2="634.2433" y2="526.2161" gradientTransform="matrix(-0.9304 0.3666 0.3666 0.9304 822.321 -172.4607)">
					<stop  offset="0" style="stop-color:#FF6C81"/>
					<stop  offset="0.1535" style="stop-color:#FF574D"/>
					<stop  offset="0.2961" style="stop-color:#FF4521"/>
					<stop  offset="1" style="stop-color:#FF4521"/>
				</linearGradient>
				<path class="st33" d="M479.67,492.99l7.48,69.58c0.18,3.34-1.41,6.22-4.11,7.45l-36.61,16.76l-9.85-8.04l-5.67-76.99
					L479.67,492.99z"/>
				
					<linearGradient id="SVGID_24_" gradientUnits="userSpaceOnUse" x1="559.6301" y1="417.3759" x2="693.8174" y2="417.3759" gradientTransform="matrix(-0.9397 0.2451 0.3555 0.9715 858.0007 -60.5887)">
					<stop  offset="0" style="stop-color:#FF6C81"/>
					<stop  offset="0.1535" style="stop-color:#FF574D"/>
					<stop  offset="0.2961" style="stop-color:#FF4521"/>
					<stop  offset="1" style="stop-color:#FF4521"/>
				</linearGradient>
				<path class="st34" d="M352.93,510.66l-1.85-12.61c-0.3-2.02,0.97-3.67,2.83-3.68l57.42-14.57l63.24-3.37
					c2.51-0.17,4.98,1.95,5.49,4.7l2.06,11.06c0.41,2.19-0.55,4.18-2.35,4.9l-40.36,16.19c-0.49,0.42-1.11,0.68-1.84,0.68
					l-80.76,0.34C354.98,514.32,353.23,512.69,352.93,510.66z"/>
				
					<linearGradient id="SVGID_25_" gradientUnits="userSpaceOnUse" x1="559.6305" y1="417.0829" x2="611.145" y2="417.0829" gradientTransform="matrix(-0.9397 0.2451 0.3555 0.9715 858.0007 -60.5887)">
					<stop  offset="0" style="stop-color:#000000"/>
					<stop  offset="0.1159" style="stop-color:#070606"/>
					<stop  offset="0.287" style="stop-color:#1B1718"/>
					<stop  offset="0.4913" style="stop-color:#3B3335"/>
					<stop  offset="0.6369" style="stop-color:#574A4D"/>
				</linearGradient>
				<path class="st35" d="M475.3,480.72c-3.33,1.9-36.61,11.47-36.55,18.1l-6.89-4.77c0,0,41.52-13.26,44.44-17.37
					c1.83,0.62,3.38,2.35,3.77,4.46l0.28,1.48C480.35,482.62,478.63,478.82,475.3,480.72z"/>
				<path class="st8" d="M352.93,510.66l-1.85-12.61c-0.3-2.02,0.97-3.67,2.83-3.68l57.42-14.57l63.24-3.37
					c2.51-0.17,4.98,1.95,5.49,4.7l2.06,11.06c0.41,2.19-0.55,4.18-2.35,4.9l-40.36,16.19c-0.49,0.42-1.11,0.68-1.84,0.68
					l-80.76,0.34C354.98,514.32,353.23,512.69,352.93,510.66z"/>
				<path class="st8" d="M449.33,580.85l-9.9-67.55c0.77-0.67,1.18-1.76,1-3l-1.46-9.99l-0.22-1.49
					c-0.06-6.63,33.22-16.21,36.55-18.1c3.33-1.9,5.05,1.91,5.05,1.91l-0.28-1.48l2.06,11.06c0.38,2.06-0.45,3.93-2.04,4.75
					l7.06,65.63c0.18,3.34-1.41,6.22-4.11,7.45l-36.39,16.66C448.59,585.71,449.71,583.46,449.33,580.85z"/>
				
					<linearGradient id="SVGID_26_" gradientUnits="userSpaceOnUse" x1="607.6809" y1="382.009" x2="696.2939" y2="470.622" gradientTransform="matrix(-0.9906 0.0231 0.2525 1.0036 939.4216 98.4244)">
					<stop  offset="0" style="stop-color:#FF6C81"/>
					<stop  offset="0.1535" style="stop-color:#FF574D"/>
					<stop  offset="0.2961" style="stop-color:#FF4521"/>
					<stop  offset="1" style="stop-color:#FF4521"/>
				</linearGradient>
				<path class="st36" d="M371.46,587.52l72.97-0.3c3.22-0.01,5.42-2.86,4.9-6.37l-11.62-79.34c-0.51-3.5-3.54-6.33-6.76-6.32
					l-72.97,0.3c-3.22,0.01-5.42,2.86-4.9,6.36l11.62,79.34C365.21,584.7,368.24,587.53,371.46,587.52z"/>
				
					<linearGradient id="SVGID_27_" gradientUnits="userSpaceOnUse" x1="604.8072" y1="115.6968" x2="690.3267" y2="201.2163" gradientTransform="matrix(-0.9906 0.0231 0.0529 0.2103 1028.849 455.8883)">
					<stop  offset="0" style="stop-color:#FF6C81"/>
					<stop  offset="0.1535" style="stop-color:#FF574D"/>
					<stop  offset="0.2961" style="stop-color:#FF4521"/>
					<stop  offset="1" style="stop-color:#FF4521"/>
				</linearGradient>
				<path class="st37" d="M356.84,514.31l80.76-0.34c1.86-0.01,3.13-1.65,2.83-3.68l-1.85-12.61c-0.3-2.02-2.04-3.66-3.9-3.65
					l-80.76,0.34c-1.86,0.01-3.13,1.65-2.83,3.68l1.85,12.61C353.23,512.69,354.98,514.32,356.84,514.31z"/>
				
					<linearGradient id="SVGID_28_" gradientUnits="userSpaceOnUse" x1="679.6605" y1="473.0623" x2="679.6605" y2="402.437" gradientTransform="matrix(-0.9959 0.0175 0.1321 1.0018 998.1465 102.116)">
					<stop  offset="0.4022" style="stop-color:#574A4D"/>
					<stop  offset="0.5389" style="stop-color:#3B3335"/>
					<stop  offset="0.7306" style="stop-color:#1B1718"/>
					<stop  offset="0.8912" style="stop-color:#070606"/>
					<stop  offset="1" style="stop-color:#000000"/>
				</linearGradient>
				<polygon class="st38" points="355.37,517.49 402.83,587.58 396.15,587.56 357.18,530.31 				"/>
				<path class="st8" d="M444.43,587.21l-72.97,0.3c-3.22,0.01-6.25-2.81-6.76-6.32l-9.9-67.55c-0.96-0.66-1.69-1.75-1.87-2.99
					l-1.85-12.61c-0.3-2.02,0.97-3.67,2.83-3.68l3.22-0.01l0.52,3.64c0.95,6.7,6.72,12.15,12.89,12.16l69.89,0.13
					c0.18,1.24-0.23,2.33-1,3l0.5,3.42l-79.66-0.15l7.35,51.99c0.95,6.7,6.72,12.15,12.89,12.16l68.82,0.13
					C449.84,584.35,447.65,587.2,444.43,587.21z"/>
				
					<linearGradient id="SVGID_29_" gradientUnits="userSpaceOnUse" x1="659.1039" y1="473.2685" x2="659.1039" y2="379.5184" gradientTransform="matrix(-0.9959 0.0175 0.1321 1.0018 998.1465 102.116)">
					<stop  offset="0.3631" style="stop-color:#574A4D"/>
					<stop  offset="0.5087" style="stop-color:#3B3335"/>
					<stop  offset="0.713" style="stop-color:#1B1718"/>
					<stop  offset="0.8841" style="stop-color:#070606"/>
					<stop  offset="1" style="stop-color:#000000"/>
				</linearGradient>
				<polygon class="st39" points="376.05,494.4 392.42,514.16 384.39,514.2 432.5,587.26 416.71,587.13 366.46,514.27 380.76,514.3 
					363.64,494.33 				"/>
				
					<linearGradient id="SVGID_30_" gradientUnits="userSpaceOnUse" x1="614.2366" y1="382.403" x2="657.0072" y2="382.403" gradientTransform="matrix(-0.9959 0.0175 0.1321 1.0018 998.1465 102.116)">
					<stop  offset="0" style="stop-color:#574A4D"/>
					<stop  offset="0.2286" style="stop-color:#3B3335"/>
					<stop  offset="0.5493" style="stop-color:#1B1718"/>
					<stop  offset="0.818" style="stop-color:#070606"/>
					<stop  offset="1" style="stop-color:#000000"/>
				</linearGradient>
				<path class="st40" d="M437.21,497.99l-0.08-0.6c-0.21-1.47-1.47-2.65-2.82-2.66l-40.23-0.08l0.46,3.25L437.21,497.99z"/>
				
					<linearGradient id="SVGID_31_" gradientUnits="userSpaceOnUse" x1="619.4185" y1="471.412" x2="619.4185" y2="414.4312" gradientTransform="matrix(-0.9959 0.0175 0.1321 1.0018 998.1465 102.116)">
					<stop  offset="0" style="stop-color:#574A4D"/>
					<stop  offset="0.2286" style="stop-color:#3B3335"/>
					<stop  offset="0.5493" style="stop-color:#1B1718"/>
					<stop  offset="0.818" style="stop-color:#070606"/>
					<stop  offset="1" style="stop-color:#000000"/>
				</linearGradient>
				<path class="st41" d="M440.29,528.05l7.13,50.42c0.53,3.74-1.83,6.77-5.28,6.76l-2.84-0.01l-7.95-56.25L440.29,528.05z"/>
				<polygon class="st8" points="439.94,516.72 480.52,500.86 480.1,496.98 439.44,513.29 				"/>
				<path class="st42" d="M449.33,580.85l-9.9-67.55c0.77-0.67,1.18-1.76,1-3l-1.46-9.99l-0.22-1.49
					c-0.06-6.63,33.22-16.21,36.55-18.1c3.33-1.9,5.05,1.91,5.05,1.91l-0.28-1.48l2.06,11.06c0.38,2.06-0.45,3.93-2.04,4.75
					l7.06,65.63c0.18,3.34-1.41,6.22-4.11,7.45l-36.39,16.66C448.59,585.71,449.71,583.46,449.33,580.85z"/>
			</g>
			<polygon class="st43" points="444.2,493.33 450.57,494.02 453.57,490.57 444.68,491.88 			"/>
			<g>
				<path class="st44" d="M570.28,511.65c0,0,7.33-3.79,8.33-8.71c1-4.92,1.8-7.5,7.47-7.47c5.67,0.03,14.3,1.83,14.3,1.83
					l1.47,10.05c0,0-6.44,5.48-7.51,7.94l-5.24-6.99l-3.03,3.23c0,0,1.08,2.74-1.98,4.17c-3.06,1.43-14.62,0.78-14.62,0.78
					L570.28,511.65z"/>
				<circle class="st4" cx="588.74" cy="507.77" r="5.32"/>
				
					<linearGradient id="SVGID_32_" gradientUnits="userSpaceOnUse" x1="452.0049" y1="545.1608" x2="487.7928" y2="545.1608" gradientTransform="matrix(-0.9304 0.3666 0.3666 0.9304 822.321 -172.4607)">
					<stop  offset="0" style="stop-color:#D8659F"/>
					<stop  offset="0.2735" style="stop-color:#DB799C"/>
					<stop  offset="0.8334" style="stop-color:#E4AE94"/>
					<stop  offset="1" style="stop-color:#E7BF91"/>
				</linearGradient>
				<path class="st45" d="M570.28,511.65c0,0,7.33-3.79,8.33-8.71c1-4.92,1.8-7.5,7.47-7.47c5.67,0.03,14.3,1.83,14.3,1.83
					l1.47,10.05c0,0-6.44,5.48-7.51,7.94l-5.24-6.99l-3.03,3.23c0,0,1.08,2.74-1.98,4.17c-3.06,1.43-14.62,0.78-14.62,0.78
					L570.28,511.65z"/>
				
					<linearGradient id="SVGID_33_" gradientUnits="userSpaceOnUse" x1="452.0507" y1="546.0716" x2="487.7903" y2="546.0716" gradientTransform="matrix(-0.9304 0.3666 0.3666 0.9304 822.321 -172.4607)">
					<stop  offset="0" style="stop-color:#D8659F"/>
					<stop  offset="0.2735" style="stop-color:#DB799C"/>
					<stop  offset="0.8334" style="stop-color:#E4AE94"/>
					<stop  offset="1" style="stop-color:#E7BF91"/>
				</linearGradient>
				<path class="st46" d="M570.06,512.98l0.22-1.33c0,0,6.18-3.21,7.96-7.54c0.01,0-1.74,4.03,1.75,6.56
					c2.58,1.87,0.99,4.55-0.02,5.82c-2.17,0.17-4.69,0.18-6.72,0.14L570.06,512.98z"/>
				<path class="st47" d="M568.62,526.21c0,0-0.92,2.77-2.18,3.59s-0.87-4.13-0.87-4.13L568.62,526.21z"/>
				
					<linearGradient id="SVGID_34_" gradientUnits="userSpaceOnUse" x1="511.8094" y1="511.1077" x2="547.178" y2="546.4763" gradientTransform="matrix(-0.9304 0.3666 0.3666 0.9304 822.321 -172.4607)">
					<stop  offset="0" style="stop-color:#FFAF6E"/>
					<stop  offset="0.1052" style="stop-color:#FFB954"/>
					<stop  offset="0.2961" style="stop-color:#FFCA28"/>
					<stop  offset="1" style="stop-color:#FFCA28"/>
				</linearGradient>
				<path class="st48" d="M576.08,511.83c0.31-2.5-2.15-4.45-4.5-3.55c-6.52,2.48-17.09,5.97-22.2,4.83
					c-7.69-1.72-23.12,4.13-23.12,4.13s0.8-2.81-4.04-3.61c0,0-18.7-11.41-24.04-15.42c-5.34-4-14.67-8.47-18-6.71
					s23.2,40.64,23.2,40.64l48.4-5.49c0,0,24.36-8.81,24.14-11.66C575.85,514.13,575.93,513,576.08,511.83z"/>
				
					<linearGradient id="SVGID_35_" gradientUnits="userSpaceOnUse" x1="477.1358" y1="545.6893" x2="483.4317" y2="545.6893" gradientTransform="matrix(-0.9304 0.3666 0.3666 0.9304 822.321 -172.4607)">
					<stop  offset="0" style="stop-color:#FFE1FF"/>
					<stop  offset="0.1859" style="stop-color:#FFE0FB"/>
					<stop  offset="0.3673" style="stop-color:#FFDCEF"/>
					<stop  offset="0.5469" style="stop-color:#FFD7DC"/>
					<stop  offset="0.7254" style="stop-color:#FFCEC0"/>
					<stop  offset="0.9015" style="stop-color:#FFC49D"/>
					<stop  offset="1" style="stop-color:#FFBD86"/>
				</linearGradient>
				<path class="st49" d="M576.92,506.33l-2.64,2.11c0,0-3.92,1.66,0.09,7.72l2.36-0.93C576.73,515.22,574.34,510.74,576.92,506.33z
					"/>
				
					<linearGradient id="SVGID_36_" gradientUnits="userSpaceOnUse" x1="477.1358" y1="521.8298" x2="562.5157" y2="521.8298" gradientTransform="matrix(-0.9304 0.3666 0.3666 0.9304 822.321 -172.4607)">
					<stop  offset="0" style="stop-color:#D8659F"/>
					<stop  offset="0.2735" style="stop-color:#DB799C"/>
					<stop  offset="0.8334" style="stop-color:#E4AE94"/>
					<stop  offset="1" style="stop-color:#E7BF91"/>
				</linearGradient>
				<path class="st50" d="M480.18,491.49c3.33-1.76,12.66,2.71,18,6.71c5.34,4,24.04,15.42,24.04,15.42
					c4.85,0.8,4.04,3.61,4.04,3.61s15.43-5.85,23.12-4.13c5.11,1.14,15.67-2.35,22.2-4.83c0.95-0.36,1.9-0.24,2.7,0.17
					c0.01,0,2.64-2.12,2.64-2.12c-0.73,1.25-1.05,2.49-1.15,3.64c0.26,0.55,0.4,1.18,0.31,1.86c-0.05,0.4-0.08,0.79-0.11,1.17
					c0.3,1.35,0.76,2.23,0.76,2.23l-1.13,0.45c-2.8,3.37-23.82,10.97-23.82,10.97l-48.4,5.49
					C503.38,532.13,476.85,493.25,480.18,491.49z"/>
				<path class="st8" d="M522.76,525.23l9.31-5.53c0,0-13.82,4.26-16.63,4.18c-2.8-0.08,8.8-4.32,8.8-4.32s-19.04,4.62-33.52-22.6
					l-5.65,5.96l13.52,31.84L522.76,525.23z"/>
				<g>
					
						<linearGradient id="SVGID_37_" gradientUnits="userSpaceOnUse" x1="558.3954" y1="494.0462" x2="558.3954" y2="542.2404" gradientTransform="matrix(-0.9971 -0.0759 -0.0759 0.9971 1069.171 8.4733)">
						<stop  offset="0" style="stop-color:#DD8B7C"/>
						<stop  offset="0.2904" style="stop-color:#DF8E7D"/>
						<stop  offset="0.515" style="stop-color:#E49881"/>
						<stop  offset="0.7174" style="stop-color:#ECA887"/>
						<stop  offset="0.9057" style="stop-color:#F8BF90"/>
						<stop  offset="1" style="stop-color:#FFCE95"/>
					</linearGradient>
					<path class="st51" d="M458.51,489.15c5.3-1.03,6.15-7.67,6.21-8.2c0.76-9.19-1.43-20.73-1.43-20.73l1.29-2.27l11.59,13.68
						c0,0,9.38-0.91,4.74,9.94c-0.26,0.6-0.46,1.2-0.64,1.8c-0.2,4.06,1.49,7.24,3.84,9.68c5.93,6.17,0.22,16.43-7.95,13.9
						C464.44,503.29,454.98,489.84,458.51,489.15z"/>
					<path class="st52" d="M464.82,473.79c-0.3-7.11-1.52-13.57-1.52-13.57l1.29-2.27l11.59,13.68c0,0,2.93-0.28,4.71,1.37
						l1.03,1.61c0.52,1.48,0.41,3.68-0.99,6.96c-0.26,0.6-0.46,1.2-0.64,1.8c-0.06,1.25,0.06,2.36,0.27,3.41
						C478.07,488.73,472.47,490.14,464.82,473.79z"/>
					<g>
						
							<linearGradient id="SVGID_38_" gradientUnits="userSpaceOnUse" x1="575.6626" y1="475.2213" x2="596.4797" y2="475.2213" gradientTransform="matrix(-0.9866 0.1633 0.1633 0.9866 946.7854 -101.4631)">
							<stop  offset="0" style="stop-color:#F91206"/>
							<stop  offset="0.1872" style="stop-color:#F60F1A"/>
							<stop  offset="0.5724" style="stop-color:#EF084F"/>
							<stop  offset="1" style="stop-color:#E70091"/>
						</linearGradient>
						<path class="st53" d="M436.22,466.69c0.44,0.26,3.61,1.77,7.59-5.34c4.29-7.66,8.44-8.87,8.44-8.87s0.7,1.18,0.9,3.18
							c0.73-0.92,1.24-1.44,1.24-1.44s3.31,6.58,0.93,8.44c-2.38,1.85-6.02,9.54-6.02,9.54c-0.64-1.96-0.81-3.86-0.68-5.64
							C443.55,470.98,436.75,467.02,436.22,466.69z"/>
					</g>
					<path class="st8" d="M450.69,458.08c0,0-1.62-3.55-4.5,0.75c-2.82,4.2-5.09,6.31-5.19,6.4c0.86-0.85,1.81-2.09,2.8-3.87
						c4.29-7.66,8.44-8.87,8.44-8.87s0.7,1.18,0.9,3.18c0.73-0.92,1.24-1.44,1.24-1.44s3.31,6.58,0.93,8.44
						c-1.17,0.91-2.64,3.23-3.84,5.36c1.32-4.33,0.9-7.15-0.53-6.03c-1.68,1.33-2.11,7.37-2.15,8.05c-0.2-1.2-0.25-2.36-0.17-3.48
						c-3.18,2.76-7.03,2.24-9.6,1.39C448.78,470.88,450.69,458.08,450.69,458.08z"/>
					<path class="st54" d="M503.97,443.93c0,0-6.13-1.6-8.82,7.92c-2.7,9.52-5.21-9.87-5.21-9.87l4.3-7.9l2.3-1.35
						C496.54,432.74,503.83,437.78,503.97,443.93z"/>
					
						<linearGradient id="SVGID_39_" gradientUnits="userSpaceOnUse" x1="531.5464" y1="606.2076" x2="500.5983" y2="645.701" gradientTransform="matrix(-1.0831 0.2753 0.2558 1.0065 878.9716 -319.2955)">
						<stop  offset="0" style="stop-color:#DD8B7C"/>
						<stop  offset="0.1446" style="stop-color:#E49981"/>
						<stop  offset="0.4865" style="stop-color:#F3B68C"/>
						<stop  offset="0.7833" style="stop-color:#FCC893"/>
						<stop  offset="1" style="stop-color:#FFCE95"/>
					</linearGradient>
					<path class="st55" d="M497.51,438.79c0,0-2.7,8.73,1,14.97c3.69,6.24,0.5,19.45-5.5,25.32c-6,5.87-23.72-3.1-25.39-5.07
						c-1.67-1.97-3.16-5.07-3.16-5.07s-0.49,3.6-2.47,4.11s-12.54-7.9-9.4-13.05c3.14-5.15,9.65,2.98,9.65,2.98
						s-8.37-12.66-6.7-18.09c1.66-5.42,6.66-18,21.7-20.52S495,429.85,497.51,438.79z"/>
					<path class="st56" d="M459.72,470.48c0.19,1.12,0.98,1.92,1.78,1.79c0.8-0.13,1.29-1.15,1.11-2.27
						c-0.19-1.12-0.98-1.92-1.78-1.79C460.03,468.35,459.54,469.36,459.72,470.48z"/>
					
						<linearGradient id="SVGID_40_" gradientUnits="userSpaceOnUse" x1="531.5464" y1="606.2076" x2="500.5984" y2="645.7009" gradientTransform="matrix(-1.0831 0.2753 0.2558 1.0065 878.9716 -319.2955)">
						<stop  offset="0" style="stop-color:#D8659F"/>
						<stop  offset="0.2735" style="stop-color:#DB799C"/>
						<stop  offset="0.8334" style="stop-color:#E4AE94"/>
						<stop  offset="1" style="stop-color:#E7BF91"/>
					</linearGradient>
					<path class="st57" d="M452.58,459.99c3.14-5.15,9.65,2.98,9.65,2.98s-8.37-12.66-6.7-18.09c1.66-5.42,6.66-18,21.7-20.52
						s17.78,5.49,20.28,14.42c0,0-2.69,8.73,1,14.97c0.12,0.21,0.22,0.44,0.32,0.66c-0.77-0.21-1.6-0.27-2.05,0.28
						c-0.98,1.2-3.74,2.57-3.74,2.57s0.36,0.91,2.2,2.83c1.85,1.92-1.88,5.45-2.9,5.97c-1.03,0.52-5.15-0.05-5.8-2.72
						c0,0,1.6,1.68,2.4,1.48c0.8-0.2,0.81-1.39,2.25-1.07c1.44,0.32,2.55,0.97,3.53-0.93c0.97-1.9-0.41-2.9-2.13-4.92
						c-1.72-2.02-4.41-11.49-3.72-16.42c0,0-0.39-2.61,0.67-5.25c1.06-2.64-5.46-1.92-6.18,0.74c0,0,1.32,11.23-1.84,21.56
						c0,0-4.93,4.7-12.18,2.02c-7.25-2.68-1.66,6.33,4.3,10c5.52,3.4,7.88,12.49,17.48,9.73c-7.17,3.09-21.98-4.48-23.5-6.27
						c-1.67-1.97-3.16-5.07-3.16-5.07s-0.49,3.6-2.47,4.11C460.01,473.55,449.44,465.14,452.58,459.99z"/>
					<path class="st58" d="M481.08,458.6c0,0,0.39-9.92-6.43-12.02c-7.23-2.23-9.23,4.36-9.39,8.43c0,0-1.48,0.28-2.83-0.3
						c0,0,0.82,2.52,3.68,2.49C468.97,457.16,481.08,458.6,481.08,458.6z"/>
					<g>
						<defs>
							<path id="SVGID_41_" d="M481.08,458.6c0,0-0.06-10.44-7.95-10.8c-7.9-0.36-7.01,9.4-7.01,9.4S472.7,464.17,481.08,458.6z"/>
						</defs>
						<clipPath id="SVGID_42_">
							<use xlink:href="#SVGID_41_"  style="overflow:visible;"/>
						</clipPath>
						
							<linearGradient id="SVGID_43_" gradientUnits="userSpaceOnUse" x1="558.0917" y1="477.6588" x2="558.0917" y2="464.3274" gradientTransform="matrix(-0.9866 0.1633 0.1633 0.9866 946.7854 -101.4631)">
							<stop  offset="0.2207" style="stop-color:#FFFFFF"/>
							<stop  offset="0.4111" style="stop-color:#FEFDFC"/>
							<stop  offset="0.547" style="stop-color:#F9F9F3"/>
							<stop  offset="0.6659" style="stop-color:#F2F0E3"/>
							<stop  offset="0.7751" style="stop-color:#E7E5CD"/>
							<stop  offset="0.8776" style="stop-color:#DAD6B0"/>
							<stop  offset="0.9739" style="stop-color:#C9C48E"/>
							<stop  offset="1" style="stop-color:#C4BE83"/>
						</linearGradient>
						<path class="st59" d="M481.08,458.6c0,0-0.06-10.44-7.95-10.8c-7.9-0.36-7.01,9.4-7.01,9.4S472.7,464.17,481.08,458.6z"/>
						<g class="st60">
							
								<linearGradient id="SVGID_44_" gradientUnits="userSpaceOnUse" x1="558.1329" y1="475.8773" x2="558.1329" y2="465.0157" gradientTransform="matrix(-0.9866 0.1633 0.1633 0.9866 946.7854 -101.4631)">
								<stop  offset="0" style="stop-color:#9F3100"/>
								<stop  offset="0.1604" style="stop-color:#792807"/>
								<stop  offset="0.3551" style="stop-color:#52200E"/>
								<stop  offset="0.534" style="stop-color:#351913"/>
								<stop  offset="0.6896" style="stop-color:#241516"/>
								<stop  offset="0.8045" style="stop-color:#1E1417"/>
							</linearGradient>
							<path class="st61" d="M477.77,451.96c1.09,2.8-0.18,5.91-2.84,6.95c-2.66,1.04-5.7-0.39-6.79-3.19
								c-1.09-2.8,0.18-5.91,2.84-6.95C473.64,447.73,476.68,449.16,477.77,451.96z"/>
							
								<linearGradient id="SVGID_45_" gradientUnits="userSpaceOnUse" x1="1359.614" y1="370.3723" x2="1359.614" y2="360.1759" gradientTransform="matrix(0.9318 -0.3631 0.3631 0.9318 -926.643 607.1462)">
								<stop  offset="0" style="stop-color:#FF6D00"/>
								<stop  offset="0.0787" style="stop-color:#FA6A00"/>
								<stop  offset="0.1659" style="stop-color:#ED6300"/>
								<stop  offset="0.257" style="stop-color:#D75600"/>
								<stop  offset="0.351" style="stop-color:#B84400"/>
								<stop  offset="0.4471" style="stop-color:#902D00"/>
								<stop  offset="0.5437" style="stop-color:#601100"/>
								<stop  offset="0.5475" style="stop-color:#5E1000"/>
							</linearGradient>
							<path class="st62" d="M477.2,452.08c1.02,2.62-0.11,5.51-2.53,6.46c-2.42,0.94-5.21-0.42-6.23-3.04
								c-1.02-2.62,0.11-5.51,2.53-6.46C473.38,448.1,476.17,449.46,477.2,452.08z"/>
							
								<linearGradient id="SVGID_46_" gradientUnits="userSpaceOnUse" x1="1359.614" y1="368.4878" x2="1359.614" y2="362.0605" gradientTransform="matrix(0.9318 -0.3631 0.3631 0.9318 -926.643 607.1462)">
								<stop  offset="0" style="stop-color:#9F3100"/>
								<stop  offset="0.1604" style="stop-color:#792807"/>
								<stop  offset="0.3551" style="stop-color:#52200E"/>
								<stop  offset="0.534" style="stop-color:#351913"/>
								<stop  offset="0.6896" style="stop-color:#241516"/>
								<stop  offset="0.8045" style="stop-color:#1E1417"/>
							</linearGradient>
							<path class="st63" d="M475.58,452.71c0.64,1.65-0.07,3.48-1.59,4.07c-1.53,0.59-3.28-0.26-3.93-1.92
								c-0.64-1.65,0.07-3.48,1.59-4.07C473.17,450.2,474.93,451.06,475.58,452.71z"/>
						</g>
						<path class="st64" d="M481.08,458.6c0,0-0.91-5.4-5.08-7.61c-2.74-1.45-6.08-2.32-9.88,6.2c-3.45,7.74-5.53-16.35-5.53-16.35
							l23.42,7.59L481.08,458.6z"/>
						<path class="st65" d="M474.9,453.25c-0.7-0.67,1.38-1.45,1.44-0.85C476.4,453.01,475.96,454.26,474.9,453.25z"/>
					</g>
					<path class="st58" d="M469.09,440.59c4.76-2.32,10.2-0.92,13.59-3.5l-0.65,2.73l1.32-2.84c-0.52,4.67-1.82,4.96-1.82,4.96
						s-10.38-4.12-16.63,7.96C464.91,449.89,464.33,442.9,469.09,440.59z"/>
					<path class="st58" d="M489.53,436.23l0.14,2.32l0.6-2.17c0,0,1.36,1.51,3.17,0.66c1.8-0.85,4.08-0.05,4.06,1.75
						c-0.02,1.8-0.47,2.02-0.47,2.02s-2.75-3.88-8.17,0.68C488.87,441.48,488.77,438.35,489.53,436.23z"/>
					
						<linearGradient id="SVGID_47_" gradientUnits="userSpaceOnUse" x1="98.3896" y1="403.0098" x2="98.3896" y2="390.5139" gradientTransform="matrix(0.7918 -0.5393 0.4979 0.7311 182.2008 228.3111)">
						<stop  offset="0" style="stop-color:#C48391"/>
						<stop  offset="0.2522" style="stop-color:#CC7697"/>
						<stop  offset="0.641" style="stop-color:#D5699D"/>
						<stop  offset="1" style="stop-color:#D8659F"/>
					</linearGradient>
					<path class="st66" d="M462.9,468.43c0,0-1.11-4.31-5.03-6.72c-3.92-2.41-6.61,1.05-4.31,2.94c0,0-0.88-0.85-0.1-2.22
						s3.23-0.29,4.81,1.2c0,0-2.99,2.65,0.89,4.57c0,0-2.16-1.91-0.39-3.92C458.77,464.28,460.57,465.15,462.9,468.43z"/>
					
						<linearGradient id="SVGID_48_" gradientUnits="userSpaceOnUse" x1="508.9172" y1="640.8706" x2="508.0694" y2="630.1436" gradientTransform="matrix(-1.0831 0.2753 0.2558 1.0065 878.9716 -319.2955)">
						<stop  offset="0" style="stop-color:#A53773"/>
						<stop  offset="0.1956" style="stop-color:#B4598B"/>
						<stop  offset="0.6246" style="stop-color:#DBAFC7"/>
						<stop  offset="1" style="stop-color:#FFFFFF"/>
					</linearGradient>
					<path class="st67" d="M493.04,457.26c0,0,0.36,0.91,2.2,2.83c1.85,1.92-1.88,5.45-2.9,5.97c-1.03,0.52-5.15-0.05-5.8-2.72
						c0,0,1.6,1.68,2.4,1.48c0.8-0.2,0.81-1.39,2.25-1.07c1.44,0.32,2.55,0.97,3.53-0.93c0.97-1.9-0.41-2.9-2.13-4.92
						c-0.48-0.56-1.02-1.69-1.55-3.13C491.06,454.74,493.04,457.26,493.04,457.26z"/>
					
						<linearGradient id="SVGID_49_" gradientUnits="userSpaceOnUse" x1="542.4551" y1="487.698" x2="541.0612" y2="470.0611" gradientTransform="matrix(-0.9866 0.1633 0.1633 0.9866 946.7854 -101.4631)">
						<stop  offset="0" style="stop-color:#DD5B7C"/>
						<stop  offset="5.432189e-03" style="stop-color:#DD5C7D"/>
						<stop  offset="0.2616" style="stop-color:#E996AB"/>
						<stop  offset="0.4981" style="stop-color:#F3C3CF"/>
						<stop  offset="0.7075" style="stop-color:#F9E4E9"/>
						<stop  offset="0.8819" style="stop-color:#FEF8F9"/>
						<stop  offset="1" style="stop-color:#FFFFFF"/>
					</linearGradient>
					<path class="st68" d="M494.72,462.81c-0.98,1.9-2.09,1.25-3.53,0.93c-1.44-0.32-1.45,0.87-2.25,1.07
						c-0.8,0.2-2.4-1.48-2.4-1.48s-0.69-2.09,0.53-3.91c1.23-1.82,0.49-11.54,3.08-7.4c0.76,2.71,1.69,4.99,2.44,5.87
						C494.31,459.92,495.7,460.92,494.72,462.81z"/>
					
						<linearGradient id="SVGID_50_" gradientUnits="userSpaceOnUse" x1="542.4624" y1="487.6975" x2="541.0684" y2="470.0602" gradientTransform="matrix(-0.9866 0.1633 0.1633 0.9866 946.7854 -101.4631)">
						<stop  offset="0" style="stop-color:#DD5B7C"/>
						<stop  offset="5.432189e-03" style="stop-color:#DD5C7D"/>
						<stop  offset="0.2616" style="stop-color:#E996AB"/>
						<stop  offset="0.4981" style="stop-color:#F3C3CF"/>
						<stop  offset="0.7075" style="stop-color:#F9E4E9"/>
						<stop  offset="0.8819" style="stop-color:#FEF8F9"/>
						<stop  offset="1" style="stop-color:#FFFFFF"/>
					</linearGradient>
					<path class="st69" d="M494.72,462.81c-0.98,1.9-2.09,1.25-3.53,0.93c-1.44-0.32-1.45,0.87-2.25,1.07
						c-0.8,0.2-2.4-1.48-2.4-1.48s-0.1-0.3-0.16-0.78c0.22,0.97,1.85,2.1,2.77,1.04c0.93-1.07,1.79,0.11,3.89-0.19
						c1.31-0.19,1.77-1.34,1.93-2.19C495.08,461.7,495.03,462.21,494.72,462.81z"/>
					<path class="st70" d="M491.77,460.86c0.81-0.1-1,1.21-1.2,1.12C490.37,461.89,490.23,461.05,491.77,460.86z"/>
					
						<linearGradient id="SVGID_51_" gradientUnits="userSpaceOnUse" x1="546.7126" y1="479.1007" x2="540.4464" y2="485.3669" gradientTransform="matrix(-0.9866 0.1633 0.1633 0.9866 946.7854 -101.4631)">
						<stop  offset="0" style="stop-color:#C48391"/>
						<stop  offset="0.2522" style="stop-color:#CC7697"/>
						<stop  offset="0.641" style="stop-color:#D5699D"/>
						<stop  offset="1" style="stop-color:#D8659F"/>
					</linearGradient>
					<path class="st71" d="M491.19,463.75c0.39,0.09,0.75,0.19,1.09,0.27c0.01,0.01-2.05-0.41-2.84,0.48
						C489.85,464.09,490.13,463.51,491.19,463.75z"/>
					<path class="st58" d="M491.91,456.32c0,0-3.2-8-0.7-12.03c2.49-4.03,5.5,4.75,5.5,4.75s0.96-0.33,1.22-1.07
						c0,0-0.17,2.63-0.89,3.07C496.32,451.47,491.91,456.32,491.91,456.32z"/>
					<g>
						<defs>
							<path id="SVGID_52_" d="M491.91,456.32c0,0-2.95-6.76-0.73-10.38c3.29-5.37,5.86,5.1,5.86,5.1S495.84,457.34,491.91,456.32z"
								/>
						</defs>
						<clipPath id="SVGID_53_">
							<use xlink:href="#SVGID_52_"  style="overflow:visible;"/>
						</clipPath>
						
							<linearGradient id="SVGID_54_" gradientUnits="userSpaceOnUse" x1="537.1722" y1="476.2748" x2="537.1722" y2="464.4135" gradientTransform="matrix(-0.9866 0.1633 0.1633 0.9866 946.7854 -101.4631)">
							<stop  offset="0.2207" style="stop-color:#FFFFFF"/>
							<stop  offset="0.4111" style="stop-color:#FEFDFC"/>
							<stop  offset="0.547" style="stop-color:#F9F9F3"/>
							<stop  offset="0.6659" style="stop-color:#F2F0E3"/>
							<stop  offset="0.7751" style="stop-color:#E7E5CD"/>
							<stop  offset="0.8776" style="stop-color:#DAD6B0"/>
							<stop  offset="0.9739" style="stop-color:#C9C48E"/>
							<stop  offset="1" style="stop-color:#C4BE83"/>
						</linearGradient>
						<path class="st72" d="M491.91,456.32c0,0-2.95-6.76-0.73-10.38c3.29-5.37,5.86,5.1,5.86,5.1S495.84,457.34,491.91,456.32z"/>
						<g class="st73">
							
								<linearGradient id="SVGID_55_" gradientUnits="userSpaceOnUse" x1="539.3085" y1="475.2336" x2="539.3085" y2="464.4123" gradientTransform="matrix(-0.9866 0.1633 0.1633 0.9866 946.7854 -101.4631)">
								<stop  offset="0" style="stop-color:#9F3100"/>
								<stop  offset="0.1604" style="stop-color:#792807"/>
								<stop  offset="0.3551" style="stop-color:#52200E"/>
								<stop  offset="0.534" style="stop-color:#351913"/>
								<stop  offset="0.6896" style="stop-color:#241516"/>
								<stop  offset="0.8045" style="stop-color:#1E1417"/>
							</linearGradient>
							<path class="st74" d="M495.7,449.52c0.28,2.86-1.21,5.54-3.55,6c-2.34,0.46-4.55-1.48-4.93-4.34
								c-0.38-2.85,1.25-5.95,3.59-6.41C493.15,444.31,495.41,446.6,495.7,449.52z"/>
							
								<linearGradient id="SVGID_56_" gradientUnits="userSpaceOnUse" x1="1375.5759" y1="388.2458" x2="1375.5759" y2="378.1055" gradientTransform="matrix(0.9871 -0.1603 0.1603 0.9871 -927.8633 292.3221)">
								<stop  offset="0" style="stop-color:#FF6D00"/>
								<stop  offset="0.0787" style="stop-color:#FA6A00"/>
								<stop  offset="0.1659" style="stop-color:#ED6300"/>
								<stop  offset="0.257" style="stop-color:#D75600"/>
								<stop  offset="0.351" style="stop-color:#B84400"/>
								<stop  offset="0.4471" style="stop-color:#902D00"/>
								<stop  offset="0.5437" style="stop-color:#601100"/>
								<stop  offset="0.5475" style="stop-color:#5E1000"/>
							</linearGradient>
							<path class="st75" d="M495.33,449.29c0.37,2.78-1.12,5.38-3.34,5.81c-2.21,0.43-4.31-1.47-4.68-4.24
								c-0.37-2.78,1.12-5.38,3.34-5.81C492.86,444.61,494.96,446.51,495.33,449.29z"/>
							
								<linearGradient id="SVGID_57_" gradientUnits="userSpaceOnUse" x1="1375.5759" y1="386.3716" x2="1375.5759" y2="379.9798" gradientTransform="matrix(0.9871 -0.1603 0.1603 0.9871 -927.8633 292.3221)">
								<stop  offset="0" style="stop-color:#9F3100"/>
								<stop  offset="0.1604" style="stop-color:#792807"/>
								<stop  offset="0.3551" style="stop-color:#52200E"/>
								<stop  offset="0.534" style="stop-color:#351913"/>
								<stop  offset="0.6896" style="stop-color:#241516"/>
								<stop  offset="0.8045" style="stop-color:#1E1417"/>
							</linearGradient>
							<path class="st76" d="M493.85,449.58c0.23,1.75-0.71,3.39-2.1,3.66c-1.4,0.27-2.72-0.92-2.95-2.67
								c-0.23-1.75,0.71-3.39,2.1-3.66C492.29,446.63,493.61,447.83,493.85,449.58z"/>
						</g>
						<path class="st77" d="M497.04,451.04c0,0-2.82-9.75-5.21-2.37c-0.48,1.49-0.69,4.21,0.08,7.65c2.29,10.16-4.62-4.94-4.62-4.94
							s4.68-7.68,5.22-8.17c0.54-0.49,5.43-2.84,5.94-3.09C498.96,439.86,497.04,451.04,497.04,451.04z"/>
						<path class="st78" d="M493.08,449.23c-0.47-0.79,1.43-1.14,1.37-0.54C494.38,449.29,493.78,450.42,493.08,449.23z"/>
					</g>
					<path class="st79" d="M494.52,469.63c0,0-0.67-1.11-2.33-0.98c-1.67,0.13-8.21,1.4-9.65,0.79c0,0,5.38,3.4,8.65,2.84
						C494.46,471.73,495.55,469.41,494.52,469.63z"/>
					<path class="st80" d="M496.86,467.88c0,0-2.33,2.07-6.15,2.31c-3.82,0.24-8.67-0.76-9.27-1.25c-0.6-0.49-0.94,0.19-0.51,0.92
						c0,0,0.9-0.09,3.87,0.15C490.86,470.5,493.1,471.35,496.86,467.88z"/>
					<path class="st81" d="M483.54,469.59c2.34,0.09,7.24-0.83,8.65-0.94c1.14-0.09,1.8,0.39,2.11,0.71c0.1,0.11,0.17,0.19,0.2,0.23
						c-2.59,1.37-5,0.8-9.7,0.42c-0.56-0.05-1.03-0.08-1.46-0.1c-0.5-0.28-0.8-0.47-0.8-0.47
						C482.76,469.53,483.11,469.58,483.54,469.59z"/>
					<path class="st82" d="M493.92,472.16c0.62-0.89-3.39,2.12-5.28,2.11C486.75,474.25,490.16,477.54,493.92,472.16z"/>
					
						<linearGradient id="SVGID_58_" gradientUnits="userSpaceOnUse" x1="528.7025" y1="455.6085" x2="574.3094" y2="455.6085" gradientTransform="matrix(-0.9866 0.1633 0.1633 0.9866 946.7854 -101.4631)">
						<stop  offset="0" style="stop-color:#F91206"/>
						<stop  offset="0.1872" style="stop-color:#F60F1A"/>
						<stop  offset="0.5724" style="stop-color:#EF084F"/>
						<stop  offset="1" style="stop-color:#E70091"/>
					</linearGradient>
					<path class="st83" d="M499.86,436.77l-2.67,0.9c0,0-2.53-5.12-10.68-3.42c-8.15,1.7-21.29,5.22-25.88,15.12
						c-8.16,17.6-2.22-16.21-2.22-16.21l29.67-9.91C488.08,423.25,499.57,427.18,499.86,436.77z"/>
					<path class="st8" d="M460.63,449.37c4.46-9.58,17.73-13.42,25.88-15.12c8.15-1.7,10.68,3.42,10.68,3.42l2.67-0.9
						c-0.29-9.59-11.78-13.52-11.78-13.52l-29.67,9.91C458.41,433.16,452.44,466.96,460.63,449.37z M476.98,431.98
						c4.48-4.01,9.76-3.35,9.76-3.35c4.18,0.68,6.95,3.99,6.08,4.66c-0.86,0.67-7.31-1.75-12.58,1.21
						C474.96,437.46,472.5,435.99,476.98,431.98z"/>
					<path class="st84" d="M478.88,418.86c-0.3-0.4-0.69-0.77-1.13-1.09c2.21-2.65,4.62-3.6,6.98-3.52
						C479.78,414.99,478.88,418.86,478.88,418.86z"/>
					<g>
						<path class="st85" d="M462.45,463.3c0,0-3.53-6.77-1.52-9.18c2.01-2.41-0.62-16.52-0.62-16.52l-11.41,9.67l4.87,11.53
							C453.78,458.79,457.16,456.99,462.45,463.3z"/>
						
							<linearGradient id="SVGID_59_" gradientUnits="userSpaceOnUse" x1="532.9908" y1="434.9453" x2="573.0974" y2="475.0519" gradientTransform="matrix(-0.9866 0.1633 0.1633 0.9866 946.7854 -101.4631)">
							<stop  offset="0" style="stop-color:#9F3100"/>
							<stop  offset="0.0201" style="stop-color:#9C3001"/>
							<stop  offset="0.4881" style="stop-color:#58210D"/>
							<stop  offset="0.827" style="stop-color:#2E1814"/>
							<stop  offset="1" style="stop-color:#1E1417"/>
						</linearGradient>
						<path class="st86" d="M484.39,425.6c0,0,7.46,3.21,11.2,15.74c0,0-1.18-8.91-8.98-15.86c0,0,8.97,4.91,9.91,16.23
							c0,0,0.59-7.05-3.87-14.27c0,0,6.28,7.17,6.5,14.46c0,0,3.46-0.06,4.81,2.02c0,0,3.1-16.72-9.16-25
							c-9.35-6.31-11.73-2.78-11.73-2.78s3.7-5.79,16.8,6.14c0,0-12.37-17.12-21.48-5.79c0,0-10.17-9.78-25.44,6.73
							c0,0,5.42-4.31,11.36-6.23c0,0-13.97,4.33-17.52,19.28c-3.47,14.61,3.68,18.46,3.68,18.46s-4.45-6.39-2.54-11.04
							c0,0-1.2,7.18,4.17,11.64c0,0,5.34,0.46,10.02-3.9c0,0,0.04-12.15,4.96-17.3c0,0-5.21,7.8-3.82,16.67c0,0-1.4-7.14,5-17.12
							c0,0-1.79,5.53-0.13,13.35c0,0,1.89-2.62,6.73-4.44c0,0-1.58-9.42,3.64-16.72c0,0-5.35,8.26-0.44,16.55
							c0,0-1.02-8.72,4.76-17.05c0,0-4.57,8.02-3.31,17.1C479.51,442.48,480.4,431.18,484.39,425.6z"/>
						<path class="st84" d="M468.26,415.76c-17.34,6.43-19.25,26.36-19.25,26.36c6.33-17.57,22.81-20.88,22.81-20.88
							c-9.35,10.12-11.02,19.21-11.02,19.21c4.85-13.86,16.22-18.92,16.22-18.92c-8.06,9.52-5.52,19.29-5.52,19.29
							c1.17-12.71,7.01-14.94,7.01-14.94c-0.28,0.38-0.54,0.79-0.77,1.19c-4.27,7.09-2.86,15.52-2.86,15.52
							c-4.84,1.81-6.73,4.44-6.73,4.44c-1.66-7.82,0.13-13.35,0.13-13.35c-5.14,8.02-5.25,14.19-5.09,16.32
							c-0.97-8.53,3.91-15.87,3.91-15.87c-4.93,5.15-4.96,17.3-4.96,17.3c-0.18,0.16-0.35,0.31-0.53,0.46
							c-0.11,1.01-0.31,1.8-0.66,2.23c-2.01,2.41,1.52,9.18,1.52,9.18c-5.28-6.31-8.67-4.51-8.67-4.51l-1.46-3.45
							c-0.14,0-0.23-0.01-0.23-0.01c-5.36-4.46-4.17-11.64-4.17-11.64c-1.9,4.65,2.54,11.04,2.54,11.04s-7.15-3.85-3.68-18.46
							c3.23-13.57,15-18.38,17.15-19.15c-5.79,1.98-10.99,6.1-10.99,6.1c1.7-1.84,3.34-3.34,4.91-4.58
							C464.28,415.61,468.26,415.76,468.26,415.76z"/>
						<path class="st84" d="M503.97,443.93c-1.36-2.09-4.81-2.02-4.81-2.02c-0.22-7.29-6.5-14.46-6.5-14.46
							c4.46,7.21,3.87,14.27,3.87,14.27c-0.93-11.31-9.91-16.23-9.91-16.23c7.8,6.95,8.98,15.86,8.98,15.86
							c-3.74-12.53-11.2-15.74-11.2-15.74c-3.99,5.57-4.88,16.88-4.88,16.88c-1.25-9.07,3.31-17.1,3.31-17.1
							c-5.78,8.33-4.76,17.05-4.76,17.05c-2.57-13.76,5.24-20.16,5.24-20.16c5.01,2.3,9.89,8.43,9.89,8.43
							c-3.98-7.52-8.68-9.96-9.92-10.5c11.32,4.16,16.33,15.51,16.33,15.51c-5.2-16.73-12.91-18.11-15.22-18.12
							c13.57-0.79,18.38,20.3,18.38,20.3c0.68-8.83-3.93-15.15-4.98-16.47C506.48,430.15,503.97,443.93,503.97,443.93z"/>
					</g>
				</g>
				
					<linearGradient id="SVGID_60_" gradientUnits="userSpaceOnUse" x1="486.0298" y1="546.1607" x2="466.7673" y2="565.4232" gradientTransform="matrix(-0.9304 0.3666 0.3666 0.9304 822.321 -172.4607)">
					<stop  offset="0" style="stop-color:#FFCE95"/>
					<stop  offset="0.033" style="stop-color:#FDCA93"/>
					<stop  offset="0.2699" style="stop-color:#EFAE89"/>
					<stop  offset="0.5096" style="stop-color:#E59B82"/>
					<stop  offset="0.7518" style="stop-color:#DF8F7D"/>
					<stop  offset="1" style="stop-color:#DD8B7C"/>
				</linearGradient>
				<path class="st87" d="M566.26,523.19c0,0,7.33-3.79,8.33-8.71c1-4.92,1.8-7.5,7.47-7.47c5.67,0.03,14.3,1.83,14.3,1.83
					l1.47,10.05c0,0-6.44,5.48-7.51,7.94l-5.24-6.99l-3.03,3.23c0,0,1.08,2.74-1.98,4.17c-3.06,1.43-14.62,0.78-14.62,0.78
					L566.26,523.19z"/>
				
					<linearGradient id="SVGID_61_" gradientUnits="userSpaceOnUse" x1="636.8974" y1="757.3281" x2="636.8974" y2="545.1608" gradientTransform="matrix(-0.9304 0.3666 0.3666 0.9304 822.321 -172.4607)">
					<stop  offset="0" style="stop-color:#DD8B7C"/>
					<stop  offset="0.0711" style="stop-color:#E49981"/>
					<stop  offset="0.2392" style="stop-color:#F3B68C"/>
					<stop  offset="0.3851" style="stop-color:#FCC893"/>
					<stop  offset="0.4916" style="stop-color:#FFCE95"/>
					<stop  offset="0.6369" style="stop-color:#DD8B7C"/>
					<stop  offset="0.7219" style="stop-color:#E29580"/>
					<stop  offset="0.8654" style="stop-color:#EFAF8A"/>
					<stop  offset="1" style="stop-color:#FFCE95"/>
				</linearGradient>
				<path class="st88" d="M489.34,570.92l1.27,6.06c0,0,3.91,7.06,6,18.68c0,0,1.7-0.22,3.69,3.07c0,0,19.58,10.61,53.07,42.22
					c0,0,2.07,59.82,7.05,86.82c4.98,27-4.92,13.93-4.92,13.93s-7.81-31.31-17.71-51.85c-9.9-20.54-3.31-33.09-3.31-33.09
					l-5.83-0.44l-0.72-2.41c0,0-32.66-19.72-39.72-29.6s-10.35,5.89-13.15,18.31c-2.8,12.42-3.04,29.03-12.97,58.96l-33.56,92.87
					l-5.11-0.45c0,0,5.98-26.93,5.61-47.37s11.47-36.08,11.47-36.08s2.49-13.2-1.34-36.13c-3.83-22.93,4.93-46.06,4.93-46.06
					s-5.43-24.11,5.69-41.84c11.12-17.73,7.5-29.2,7.5-29.2L489.34,570.92z"/>
				<path class="st52" d="M474.42,577.96c-16.88-1.07-20.39,9.48-20.39,9.48l-4.49-0.51c0.08-0.14,0.16-0.28,0.25-0.42
					c11.12-17.73,7.5-29.2,7.5-29.2l32.05,13.62l1.27,6.06c0,0,1.78,3.22,3.57,8.86C490.52,582.57,484.15,578.58,474.42,577.96z"/>
				
					<linearGradient id="SVGID_62_" gradientUnits="userSpaceOnUse" x1="535.8221" y1="510.0893" x2="611.2695" y2="585.5366" gradientTransform="matrix(-0.9304 0.3666 0.3666 0.9304 822.321 -172.4607)">
					<stop  offset="0" style="stop-color:#F9C067"/>
					<stop  offset="0.0853" style="stop-color:#FBC354"/>
					<stop  offset="0.2961" style="stop-color:#FFCA28"/>
					<stop  offset="1" style="stop-color:#FFCA28"/>
				</linearGradient>
				<path class="st89" d="M457,490.05c0,0-11.54,1.47-13.94,11.76c-2.4,10.29,12.21,43.05,12.21,43.05l-2.2,0.87l1.08,6.19
					c-0.01,0.56-0.06,1.43-0.24,2.47c-0.56,3.32-1.95,5.56-2.39,6.37c-2.4,4.39,0.21,8.26-0.36,16.65
					c-0.17,2.53-0.68,6.18-2.26,10.58c4.18,0.56,8.35,1.13,12.53,1.69c11.81,1.07,23.61,2.14,35.42,3.21
					c-1.75-4.61-3.49-9.21-5.24-13.82c0,0,2.62-2.05,1.47-4.98c0.05-0.5,0.16-1.07,0.37-1.7c0.54-1.6,1.48-2.69,2.1-3.29
					c1.04-2.34,2.09-5.26,2.8-8.71c1.26-6.12,0.93-11.39,0.39-15c0,0,19.24,3.62,34.44-3.9c15.2-7.51,29.73-5.94,30.11-11.01
					l1.89-7.7c0,0-1.01-2.15-3.54-0.81c-2.53,1.34-11.07,3.34-18.19,2.93c-7.12-0.42-20.09-3.12-26.64,1.33c0,0-1.17-2.08-4.95-0.08
					l-5.24-4.54c0,0,0.16-2.79-3.08-5.41c-3.24-2.63-11.41-14.85-12.81-19.22c-1.4-4.37-8.28-5.98-8.28-5.98s7.11,7.8,3.36,11.65
					C482.06,506.48,482.47,514.46,457,490.05z"/>
				
					<linearGradient id="SVGID_63_" gradientUnits="userSpaceOnUse" x1="557.3426" y1="495.1384" x2="582.7437" y2="495.1384" gradientTransform="matrix(-0.9304 0.3666 0.3666 0.9304 822.321 -172.4607)">
					<stop  offset="0" style="stop-color:#FFE1FF"/>
					<stop  offset="0.1859" style="stop-color:#FFE0FB"/>
					<stop  offset="0.3673" style="stop-color:#FFDCEF"/>
					<stop  offset="0.5469" style="stop-color:#FFD7DC"/>
					<stop  offset="0.7254" style="stop-color:#FFCEC0"/>
					<stop  offset="0.9015" style="stop-color:#FFC49D"/>
					<stop  offset="1" style="stop-color:#FFBD86"/>
				</linearGradient>
				<path class="st90" d="M482.44,490.97c0,0,4.81,9.17,1.07,12.72c-3.74,3.55-22.97-15.33-22.97-15.33s-2.08-0.6-3.55,1.67
					c0,0,7.33,13.57,18.41,17.35C486.5,511.17,493.53,501.37,482.44,490.97z"/>
				<path class="st8" d="M450.53,564.11c1.34-1.8,2.02-3.4,2.39-4.48c1.21-3.53,1.23-7.72,1.23-7.72l-1.08-6.19l2.2-0.87
					c0,0-14.61-32.77-12.21-43.05c2.4-10.29,13.94-11.76,13.94-11.76c0.91-1.41,2.05-1.71,2.79-1.74
					c2.52,5.91,9.64,18.45,24.79,18.82c-2.27,1.26-5.48,1.53-9.16,0.27c-4.04-1.38-7.58-4.06-10.45-6.91
					c-0.69-0.68-1.32-1.35-1.91-2.02c-2.27-2.18-6.15-5.11-9.28-3.49c-4.74,2.45-6.94,13.83-6.94,13.83s12.05,16.8,27.73,18.26
					c15.68,1.46,25.89,10.57,25.89,10.57s8.36,6.28-0.88-0.4c-9.24-6.68-23.14-8.02-23.14-8.02c12.62,2.32,18.78,13.64,31.58,14.66
					c12.79,1.01,30.51-5.68,29.07-7.6c-1.43-1.91-15.48,1.28-15.48,1.28c19.27-5.72,29.89-3.46,35.29-4.4c5.4-0.94,8-9.19,8-9.2
					l-1.59,6.51c-0.38,5.07-14.91,3.5-30.11,11.01c-15.2,7.51-34.44,3.9-34.44,3.9l-6.38-0.2c0,0-29.12-19.24-29.53-12.97
					c-0.41,6.27,9.67,23.68,9.67,23.68l-12.99-15.75l12.92,22.9c7.27-0.49,14.39,7.23,14.39,7.23c0.49,0.45,0.98,0.89,1.48,1.34
					c0.83,0.04,2.07,0.01,3.47-0.41c0.09-0.03,0.11-0.03,0.12-0.04c1.39-0.5,0.95-3.12,1.84-6.46c0.3-1.11,0.47-1.28,1.07-2.89
					c0,0,1.27-3.38,3.35-14.07l0,0c0.9,2.49,2.41,7.89,0.38,13.74c-0.45,1.29-1.01,2.42-1.59,3.39c-0.86,1.24-1.83,2.89-2.64,4.95
					c-0.62,1.57-1,3.02-1.23,4.25c-0.17,1.12-0.28,2.32-0.3,3.59c-0.11,6.56,2.17,11.87,4.07,15.21c-3.09-2.88-7.75-6.2-13.15-5.78
					c-2.64,0.21-3.9,1.18-6.63,1.93c-3.5,0.96-8.83,1.38-16.4-1.54c-3.49-0.86-6.97-1.72-10.46-2.57c0.75-2.41,1.5-5.7,1.64-9.65
					C452.01,570.62,451.26,566.77,450.53,564.11z"/>
				<path class="st8" d="M516.81,526.22c0,0-5.98,4.9-7.69,10.67C509.12,536.88,508,528.9,516.81,526.22z"/>
				<path class="st8" d="M511.85,526.13c0,0-5.74,1.3-5.92,7.25C505.93,533.39,501.14,528.83,511.85,526.13z"/>
				<path class="st8" d="M506.61,521.59c0,0-1.73-2.27-5.57-3.13c-3.85-0.86-20.07-8.72-20.07-8.72S504.41,517.04,506.61,521.59z"/>
				<path class="st52" d="M570.59,528.18c-2.83-0.02-5.14-0.14-5.14-0.14l0.81-4.84c0,0,2.64-1.37,4.97-3.53
					C567.44,524.69,570.58,528.17,570.59,528.18z"/>
				
					<linearGradient id="SVGID_64_" gradientUnits="userSpaceOnUse" x1="484.179" y1="544.31" x2="464.9166" y2="563.5723" gradientTransform="matrix(-0.9304 0.3666 0.3666 0.9304 822.321 -172.4607)">
					<stop  offset="0" style="stop-color:#D8659F"/>
					<stop  offset="0.2735" style="stop-color:#DB799C"/>
					<stop  offset="0.8334" style="stop-color:#E4AE94"/>
					<stop  offset="1" style="stop-color:#E7BF91"/>
				</linearGradient>
				<path class="st91" d="M597.83,518.9c0,0-6.44,5.48-7.51,7.94l-5.24-6.99l-3.03,3.23c0,0,1.08,2.74-1.98,4.17
					c-0.49,0.23-1.22,0.4-2.07,0.54c6.35-1.63,1.28-12.16,1.28-12.16c3.65,0.94,7.79-0.18,7.79-0.18c1.72,2.21,4.94,2.05,4.94,2.05
					l-1.87-3.88l-9.78-3.44l11.01,2.68c1.45,2.09,3.48,2.24,3.48,2.24l-1.17-3.55l-9.26-2.97c0,0,9.88,2.39,10.98,1.56
					c1.1-0.83-0.62-1.58-0.62-1.59c0.97,0.18,1.58,0.31,1.58,0.31L597.83,518.9z"/>
				
					<linearGradient id="SVGID_65_" gradientUnits="userSpaceOnUse" x1="491.75" y1="556.0825" x2="499.2382" y2="556.0825" gradientTransform="matrix(-0.9304 0.3666 0.3666 0.9304 822.321 -172.4607)">
					<stop  offset="0" style="stop-color:#FFE1FF"/>
					<stop  offset="0.1859" style="stop-color:#FFE0FB"/>
					<stop  offset="0.3673" style="stop-color:#FFDCEF"/>
					<stop  offset="0.5469" style="stop-color:#FFD7DC"/>
					<stop  offset="0.7254" style="stop-color:#FFCEC0"/>
					<stop  offset="0.9015" style="stop-color:#FFC49D"/>
					<stop  offset="1" style="stop-color:#FFBD86"/>
				</linearGradient>
				<path class="st92" d="M567.56,522.44l-2.38,0.33c0,0-6.02,2.27-2.02,8.32l3.27-1.29C566.44,529.8,564.98,526.86,567.56,522.44z"
					/>
				<path class="st52" d="M483.63,584.83c0,0-2.35,7.88-0.77,8.67c1.58,0.79,0.3-4.3,0.3-4.3S483.2,588.05,483.63,584.83z"/>
				
					<linearGradient id="SVGID_66_" gradientUnits="userSpaceOnUse" x1="592.9057" y1="735.357" x2="536.1711" y2="735.357" gradientTransform="matrix(-0.7956 0.6058 0.6058 0.7956 579.8445 -204.9883)">
					<stop  offset="0" style="stop-color:#F77F4B"/>
					<stop  offset="0.4015" style="stop-color:#FCAC36"/>
					<stop  offset="0.7039" style="stop-color:#FFCA28"/>
					<stop  offset="0.8665" style="stop-color:#F7AF54"/>
					<stop  offset="1" style="stop-color:#EF967B"/>
				</linearGradient>
				<path class="st93" d="M605.02,713.11l-44.24,33.69c0,0-6.55-4.41-7.27-9.54c-0.71-5.13-1.4-6.74-3.1-7.57
					c-1.7-0.83,1.23-1.65,3.98,0.34c2.75,1.98,4.19-5.11,4.19-5.11s14.47-2.53,20.46-5.85
					C585.02,715.74,594.12,705.09,605.02,713.11z"/>
				
					<linearGradient id="SVGID_67_" gradientUnits="userSpaceOnUse" x1="711.5831" y1="759.9733" x2="749.1976" y2="797.5877" gradientTransform="matrix(-0.9304 0.3666 0.3666 0.9304 822.321 -172.4607)">
					<stop  offset="0" style="stop-color:#F77F4B"/>
					<stop  offset="0.4015" style="stop-color:#FCAC36"/>
					<stop  offset="0.7039" style="stop-color:#FFCA28"/>
					<stop  offset="0.8665" style="stop-color:#F7AF54"/>
					<stop  offset="1" style="stop-color:#EF967B"/>
				</linearGradient>
				<path class="st94" d="M429.4,792.39c0,0-3.42,6.33-5.17-3.3c0,0-9.4,3.11-12.25,11.37c0,0,0.02,4.64,3.07,10.67
					c3.06,6.04,0.3,25.45,5.37,34.31l25.87-10.19c0,0-1.11-6.8-8.17-9.22c0,0-6.16-10.47-6.84-15.63
					C430.6,805.23,432.02,797.28,429.4,792.39z"/>
				
					<linearGradient id="SVGID_68_" gradientUnits="userSpaceOnUse" x1="536.1713" y1="740.3735" x2="592.9012" y2="740.3735" gradientTransform="matrix(-0.7956 0.6058 0.6058 0.7956 579.8445 -204.9883)">
					<stop  offset="0" style="stop-color:#F9CAA0"/>
					<stop  offset="0.3548" style="stop-color:#FBBE7F"/>
					<stop  offset="0.8939" style="stop-color:#FFAA45"/>
				</linearGradient>
				<path class="st95" d="M605.02,713.11l-44.24,33.69c0,0-2.58-1.74-4.67-4.3c1.78,2.68,4.54-0.09,4.54-0.09
					c3.45-6.59,12.57-9.04,16.24-10.64c3.67-1.61,11.05-8.42,11.05-8.42c-2.75-2.4-2.77-8.49-2.77-8.51
					C590.59,711.06,597.36,707.47,605.02,713.11z"/>
				
					<linearGradient id="SVGID_69_" gradientUnits="userSpaceOnUse" x1="719.084" y1="775.491" x2="747.2059" y2="775.491" gradientTransform="matrix(-0.9304 0.3666 0.3666 0.9304 822.321 -172.4607)">
					<stop  offset="0" style="stop-color:#F9CAA0"/>
					<stop  offset="0.3548" style="stop-color:#FBBE7F"/>
					<stop  offset="0.8939" style="stop-color:#FFAA45"/>
				</linearGradient>
				<path class="st96" d="M446.28,835.25l-25.87,10.19c-5.08-8.86-2.32-28.28-5.37-34.31c-3.06-6.04-3.07-10.67-3.07-10.67
					c0.66-1.91,1.68-3.53,2.84-4.92c-0.38,0.58-2.88,4.71,1.46,8.74c4.68,4.35,2.56,11.46,1.77,15.68
					c-0.8,4.22,2.74,13.43,2.74,13.43c8.65-8.84,17.32-7.36,17.32-7.36C445.17,828.45,446.28,835.25,446.28,835.25z"/>
				<path class="st8" d="M560.02,743.92c0,0-6.46-4.48-7.27-9.54c-0.42-2.63-0.81-4.31-1.32-5.45c0,0,4.4,8.11,9.08,3.55
					c4.69-4.56,8.11-1.31,17.38-4.47c9.2-3.13,21.73-17.59,21.94-17.84c0.82,0.42,1.64,0.91,2.49,1.55L560.02,743.92z"/>
				<path class="st8" d="M446.28,835.25l-25.87,10.19c-5.08-8.86-2.32-28.28-5.37-34.31c-3.06-6.04-3.07-10.67-3.07-10.67
					c2.86-8.26,12.25-11.37,12.25-11.37c0.07,0.4,0.15,0.74,0.23,1.09c-12.77,4.5-1.78,21.51-3.19,25.03
					c-1.41,3.53-2.12,24.76,8.08,23.97c9.1-0.71,14.14-6.89,15.12-8.23C445.94,833.2,446.28,835.25,446.28,835.25z"/>
				
					<linearGradient id="SVGID_70_" gradientUnits="userSpaceOnUse" x1="561.5985" y1="728.7523" x2="582.8009" y2="728.7523" gradientTransform="matrix(-0.7956 0.6058 0.6058 0.7956 579.8445 -204.9883)">
					<stop  offset="0" style="stop-color:#FFE1FF"/>
					<stop  offset="0.1771" style="stop-color:#FECEDD"/>
					<stop  offset="0.5649" style="stop-color:#FB9D89"/>
					<stop  offset="0.8939" style="stop-color:#F9713D"/>
				</linearGradient>
				<path class="st97" d="M577.99,719.59c0,0-15.54,12.25-21.99,6.12l2.58-5.73C558.58,719.98,569.29,724.08,577.99,719.59z"/>
				
					<linearGradient id="SVGID_71_" gradientUnits="userSpaceOnUse" x1="711.502" y1="762.3256" x2="732.659" y2="762.3256" gradientTransform="matrix(-0.9304 0.3666 0.3666 0.9304 822.321 -172.4607)">
					<stop  offset="0" style="stop-color:#FFE1FF"/>
					<stop  offset="0.1771" style="stop-color:#FECEDD"/>
					<stop  offset="0.5649" style="stop-color:#FB9D89"/>
					<stop  offset="0.8939" style="stop-color:#F9713D"/>
				</linearGradient>
				<path class="st98" d="M431.69,818.24c0,0-4.94,1.01-5.94,1.49c0,0-7.27-24.71,2.65-35.07l9.11,7.19
					C437.51,791.85,427.17,803.13,431.69,818.24z"/>
				
					<linearGradient id="SVGID_72_" gradientUnits="userSpaceOnUse" x1="552.4651" y1="605.4913" x2="723.9117" y2="776.938" gradientTransform="matrix(-0.9304 0.3666 0.3666 0.9304 822.321 -172.4607)">
					<stop  offset="0" style="stop-color:#574A4D"/>
					<stop  offset="0.3607" style="stop-color:#473137"/>
					<stop  offset="0.7414" style="stop-color:#3A1D25"/>
					<stop  offset="1" style="stop-color:#35161F"/>
				</linearGradient>
				<path class="st99" d="M423.72,774.01l0.98-0.39l-0.39-4.23l1.59-0.63c0,0,1.93-27.08,3.12-35.19
					c1.19-8.11,8.77-22.98,8.77-22.98l1.1-0.43l0.21-3.05l1.89-0.74c0.46-5.57,0.74-16.55-1.83-31.95
					c-0.71-4.25-0.99-8.51-0.97-12.62c-0.54-9.67,3.99-29.95,3.99-29.95l-1.22-3.1l0.9-0.35c-0.48-2.17,0.43-1.77,0.43-1.77
					c-6.84-23.34,6.59-38.6,6.34-39.95c-0.25-1.31,2.33-2.35,2.49-2.41c17.22,7.67,44.51,6.98,44.56,6.98
					c0.33,1.4,0.65,2.87,0.93,4.44c0,0,1.7-0.22,3.69,3.07c0,0,19.58,10.61,53.07,42.22c0,0,0.04,1.24,0.13,3.38l6.25,77.15
					c-0.06,0.23-0.15,0.45-0.25,0.67c-1.35,2.94-5.94,5.16-7.75,5.94c-0.46,0.2-0.74,0.3-0.74,0.3l-3.72-5.68l1.07-0.35l-1.86-2.03
					l0.96-0.45l-11.22-33.55c-1.07-2.61-1.88-5.08-2.47-7.39c-3.55-14.01,0.73-22.18,0.73-22.18l-5.83-0.44l-0.72-2.41
					c0,0-32.66-19.72-39.72-29.6c-7.06-9.89-10.35,5.89-13.15,18.31c-0.48,2.14-0.89,4.41-1.28,6.84l-4.9,48.74
					c-14.23,27.4-33.66,84.87-33.66,84.87c-0.99,0.51-1.98,0.84-2.95,1.04c-2.75,0.57-5.28,0.07-6.85-0.41
					c-1.03-0.32-1.67-0.63-1.67-0.63L423.72,774.01z"/>
			</g>
			<path class="st10" d="M559.5,722.15c-1.35,2.94-5.94,5.16-7.75,5.94c-0.46,0.2-0.74,0.3-0.74,0.3l-3.72-5.68l1.07-0.35
				l-1.86-2.03l0.96-0.45l-11.22-33.55c-1.07-2.61-1.88-5.08-2.47-7.39c-3.55-14.01,0.73-22.18,0.73-22.18l-5.83-0.44l-0.72-2.41
				c0,0-32.66-19.72-39.72-29.6c-4.03-5.64-6.82-2.93-9.01,2.74l-0.13-1.18c0,0,2.21-6.25,10.36-12.86l-4.09,6.28l11.07-12.99
				c0,0-4.44,8.12-4.54,10.56c-0.1,2.44,52.35,28.9,52.35,28.9s-18.56,10-8.67,7.09c0,0-1.99,7.15,6.14-0.58
				c0,0-10.13,44.32,12.94,60.14c0,0-1.85,3.56-3.89,4.5c0,0,1.52,3.5,5.4-3.54c0,0-0.72,4.78-5.19,5.87c0,0,3.82,6.7,8.04-6.95
				l0.74,9.18C559.69,721.71,559.6,721.93,559.5,722.15z"/>
			<path class="st10" d="M423.72,774.01l0.98-0.39l-0.39-4.23l1.59-0.63c0,0,1.93-27.08,3.12-35.19c1.19-8.11,8.77-22.98,8.77-22.98
				l1.1-0.43l0.21-3.05l1.89-0.74c0.46-5.57,0.74-16.55-1.83-31.95c-0.71-4.25-0.99-8.51-0.97-12.62
				c-0.54-9.67,3.99-29.95,3.99-29.95l-1.22-3.1l0.9-0.35c-0.48-2.17,0.43-1.77,0.43-1.77c-6.84-23.34,6.59-38.6,6.34-39.95
				c-0.25-1.31,2.33-2.35,2.49-2.41c17.22,7.67,44.51,6.98,44.56,6.98c0,0-3.25,0.63-8.02,1.19l0.57,15.19l-8.71,7.4l6.08-7.07
				l-1.03-15.19c-9.53,0.88-22.82,1.05-29.95-3.59c0,0-5.03,14.06-1.97,22.29c0,0,13.54,4.67,21.5,15.3c0,0-15.65-12.89-23.07-13.55
				l18.81,11.83l-19.47-9.87c0,0-3.89,8.51-1.92,12.08c0,0-5.57-0.26-1.39,4.13c0,0-5.08-0.45-2.37,4.52c0,0-0.92,39.8,4.7,49.28
				c5.62,9.48-1.45,27.93-1.45,27.93s-4.69-7.59-4.83,0.2c0,0-6.36-5.61-4.65,3.53c0,0-6.82,7.59-7.16,16.78
				c-0.34,9.19-1.38,40.54,7.3,32.41c0,0-5.56,11.17-8.78,2.14c0,0-2.06,8.19,4.67,5.15c2.13-0.96,4.26-3.23,6.17-5.88
				c-3.35,9.37-5.47,15.65-5.47,15.65c-0.99,0.51-1.98,0.84-2.95,1.04c-2.75,0.57-5.28,0.07-6.85-0.41
				c-1.03-0.32-1.66-0.63-1.66-0.63L423.72,774.01z"/>
			<path class="st100" d="M444.2,493.33c0,0,6.77-6.33,25.32,11.07c0,0-9.3-15.99-15.15-15.96
				C448.52,488.48,442.44,490.67,444.2,493.33z"/>
			<polygon class="st100" points="469.2,530.25 460.68,526.57 444.05,544.76 446.42,560.95 			"/>
			<path class="st100" d="M493.4,502.37c0,0-6.43-8.31-10.96-11.4c0,0-2.47-3.36-2.16-7.62
				C480.28,483.36,489.87,485.85,493.4,502.37z"/>
			<path class="st101" d="M493.4,502.37c0,0-6.43-8.31-10.96-11.4c0,0-2.47-3.36-2.16-7.62
				C480.28,483.36,489.87,485.85,493.4,502.37z"/>
			<path class="st10" d="M444.05,544.76l16.63-18.19l1.24,0.54c-3.71,4.8-15,19.75-12.48,21.02c1.99,1,6.36-1.61,9.1-3.5
				l-12.12,16.32L444.05,544.76z"/>
		</g>
	</g>
</g>
</svg>
