<svg width="111" height="140" viewBox="0 0 111 140" fill="none" xmlns="http://www.w3.org/2000/svg">
<g filter="url(#filter0_d_2_93)">
<circle cx="41" cy="66" r="20" fill="white"/>
</g>
<path fill-rule="evenodd" clip-rule="evenodd" d="M44.4524 76L30.9524 76C30.2423 76 29.6667 75.4244 29.6667 74.7143C29.6667 74.0042 30.2423 73.4286 30.9524 73.4286L44.4524 73.4286C45.1624 73.4286 45.7381 74.0042 45.7381 74.7143C45.7381 75.4244 45.1624 76 44.4524 76ZM29.6667 59.2857C29.6667 58.5756 30.2423 58 30.9524 58L52.1666 58C52.8767 58 53.4524 58.5756 53.4524 59.2857C53.4524 59.9958 52.8767 60.5714 52.1666 60.5714L30.9524 60.5714C30.2423 60.5714 29.6667 59.9958 29.6667 59.2857ZM30.9524 68.2858L48.3095 68.2858C49.0196 68.2858 49.5952 67.7102 49.5952 67.0001C49.5952 66.29 49.0196 65.7144 48.3095 65.7144L30.9524 65.7144C30.2423 65.7144 29.6667 66.29 29.6667 67.0001C29.6667 67.7102 30.2423 68.2858 30.9524 68.2858Z" fill="#030919"/>
<defs>
<filter id="filter0_d_2_93" x="-29" y="0" width="140" height="140" filterUnits="userSpaceOnUse" color-interpolation-filters="sRGB">
<feFlood flood-opacity="0" result="BackgroundImageFix"/>
<feColorMatrix in="SourceAlpha" type="matrix" values="0 0 0 0 0 0 0 0 0 0 0 0 0 0 0 0 0 0 127 0" result="hardAlpha"/>
<feOffset dy="4"/>
<feGaussianBlur stdDeviation="25"/>
<feComposite in2="hardAlpha" operator="out"/>
<feColorMatrix type="matrix" values="0 0 0 0 0 0 0 0 0 0 0 0 0 0 0 0 0 0 0.17 0"/>
<feBlend mode="normal" in2="BackgroundImageFix" result="effect1_dropShadow_2_93"/>
<feBlend mode="normal" in="SourceGraphic" in2="effect1_dropShadow_2_93" result="shape"/>
</filter>
</defs>
</svg>
